<?xml version="1.0" encoding="UTF-8" standalone="no"?>
<!DOCTYPE svg PUBLIC "-//W3C//DTD SVG 1.1//EN" "http://www.w3.org/Graphics/SVG/1.1/DTD/svg11.dtd">
<svg width="100%" height="100%" viewBox="0 0 201 201" version="1.1" xmlns="http://www.w3.org/2000/svg" xmlns:xlink="http://www.w3.org/1999/xlink" xml:space="preserve" xmlns:serif="http://www.serif.com/" style="fill-rule:evenodd;clip-rule:evenodd;stroke-linejoin:round;stroke-miterlimit:2;">
    <g transform="matrix(1,0,0,1,-8295,-2185)">
        <g id="dailydev-white" transform="matrix(1.01549,0,0,1.01549,1512.24,534.417)">
            <rect x="6680" y="1626.05" width="196.949" height="196.949" style="fill:none;"/>
            <clipPath id="_clip1">
                <rect x="6680" y="1626.05" width="196.949" height="196.949"/>
            </clipPath>
            <g clip-path="url(#_clip1)">
                <g transform="matrix(0.540522,0,0,0.540522,2611.21,1879.85)">
                    <g transform="matrix(0.579762,0.579762,-0.579762,0.579762,3224.75,-4559.94)">
                        <path d="M7579.11,-355L7675.04,-355C7688.02,-355 7700.48,-349.841 7709.66,-340.659C7718.84,-331.477 7724,-319.023 7724,-306.037C7724,-267.34 7724,-214.805 7724,-183.553C7724,-168.888 7712.11,-157 7697.45,-157C7697.45,-157 7697.45,-157 7697.45,-157C7682.78,-157 7670.89,-168.888 7670.89,-183.553C7670.89,-225.378 7670.89,-301.894 7670.89,-301.894L7598,-301.894L7579.11,-355Z" style="fill:white;fill-opacity:0.56;"/>
                    </g>
                    <g transform="matrix(0.579762,0.579762,-0.579762,0.579762,3224.75,-4559.94)">
                        <path d="M7526.3,-12.405C7526.3,-12.405 7471.98,-12.405 7429.86,-12.405C7417.01,-12.405 7404.68,-17.51 7395.6,-26.597C7386.51,-35.684 7381.4,-48.008 7381.4,-60.859C7381.4,-91.595 7381.4,-131.215 7381.4,-161.952C7381.4,-174.802 7386.51,-187.127 7395.6,-196.214C7404.68,-205.3 7417.01,-210.405 7429.86,-210.405C7465.13,-210.405 7506.75,-210.405 7506.75,-210.405L7506.75,-157.299L7434.51,-157.299L7434.51,-65.511L7507.62,-65.511L7526.3,-12.405ZM7526.3,-12.405L7526.3,-65.511L7526.3,-151.967L7526.3,-157L7526.3,-231.626L7526,-231.626C7526,-231.626 7526,-271.993 7526,-306.546C7526,-333.307 7547.69,-355 7574.45,-355C7577.34,-355 7579.11,-355 7579.11,-355L7579.11,-301.894L7579.11,-210.405L7579.4,-210.405L7579.4,-210.106L7579.9,-157L7579.4,-157C7579.4,-157 7579.4,-102.879 7579.4,-60.859C7579.4,-34.099 7557.71,-12.405 7530.95,-12.405C7528.07,-12.405 7526.3,-12.405 7526.3,-12.405Z" style="fill:white;"/>
                    </g>
                </g>
            </g>
        </g>
    </g>
</svg>
