<?xml version="1.0" encoding="UTF-8" standalone="no"?>
<!DOCTYPE svg PUBLIC "-//W3C//DTD SVG 1.1//EN" "http://www.w3.org/Graphics/SVG/1.1/DTD/svg11.dtd">
<svg width="100%" height="100%" viewBox="0 0 201 200" version="1.1" xmlns="http://www.w3.org/2000/svg" xmlns:xlink="http://www.w3.org/1999/xlink" xml:space="preserve" xmlns:serif="http://www.serif.com/" style="fill-rule:evenodd;clip-rule:evenodd;stroke-linejoin:round;stroke-miterlimit:2;">
    <g transform="matrix(1,0,0,1,-7836,-1626)">
        <g id="dsm-white" transform="matrix(1.01549,0,0,1.01549,1053.13,-25.2437)">
            <rect x="6680" y="1626.05" width="196.949" height="196.949" style="fill:none;"/>
            <clipPath id="_clip1">
                <rect x="6680" y="1626.05" width="196.949" height="196.949"/>
            </clipPath>
            <g clip-path="url(#_clip1)">
                <g transform="matrix(0.879235,0,0,0.879235,-692.387,-88.8969)">
                    <g transform="matrix(1,0,0,1,0,240)">
                        <path d="M8429.61,1781C8434.75,1781 8439.68,1783.04 8443.32,1786.68C8446.96,1790.32 8449,1795.25 8449,1800.39C8449,1813.7 8449,1831.3 8449,1844.61C8449,1849.75 8446.96,1854.68 8443.32,1858.32C8439.68,1861.96 8434.75,1864 8429.61,1864C8410.77,1864 8385,1864 8385,1864L8385,1815L8402,1815L8402,1847L8426.45,1847C8429.51,1847 8432,1844.51 8432,1841.45C8432,1832.02 8432,1812.98 8432,1803.55C8432,1800.49 8429.51,1798 8426.45,1798L8385,1798L8385,1781L8429.61,1781Z" style="fill:white;"/>
                    </g>
                    <g transform="matrix(1,0,0,1,79,240)">
                        <path d="M8449,1781L8449,1798L8412.5,1798C8407.81,1798 8404,1801.81 8404,1806.5C8404,1806.5 8404,1806.5 8404,1806.5C8404,1811.19 8407.81,1815 8412.5,1815C8415.97,1815 8420.19,1815 8424.5,1815C8438.03,1815 8449,1825.97 8449,1839.5C8449,1839.5 8449,1839.5 8449,1839.5C8449,1853.03 8438.03,1864 8424.5,1864L8385,1864L8385,1847L8424.5,1847C8428.64,1847 8432,1843.64 8432,1839.5C8432,1839.5 8432,1839.5 8432,1839.5C8432,1835.36 8428.64,1832 8424.5,1832C8420.62,1832 8415.62,1832 8410.5,1832C8403.74,1832 8397.25,1829.31 8392.47,1824.53C8387.69,1819.75 8385,1813.26 8385,1806.5L8385,1806.5C8385,1799.74 8387.69,1793.25 8392.47,1788.47C8397.25,1783.69 8403.74,1781 8410.5,1781C8428.34,1781 8449,1781 8449,1781Z" style="fill:white;"/>
                    </g>
                    <g transform="matrix(7.94107e-17,1.29688,-1,6.12323e-17,10343,-8853.3)">
                        <path d="M8385,1780.73L8409.42,1766.23L8385,1751.27L8385,1734L8449,1734L8449,1751L8412.75,1751L8438.05,1766.5L8413.63,1781L8449,1781L8449,1798L8385,1798L8385,1780.73Z" style="fill:white;"/>
                    </g>
                </g>
            </g>
        </g>
    </g>
</svg>
