<?xml version="1.0" encoding="UTF-8" standalone="no"?>
<!DOCTYPE svg PUBLIC "-//W3C//DTD SVG 1.1//EN" "http://www.w3.org/Graphics/SVG/1.1/DTD/svg11.dtd">
<svg width="100%" height="100%" viewBox="0 0 200 200" version="1.1" xmlns="http://www.w3.org/2000/svg" xmlns:xlink="http://www.w3.org/1999/xlink" xml:space="preserve" xmlns:serif="http://www.serif.com/" style="fill-rule:evenodd;clip-rule:evenodd;stroke-linejoin:round;stroke-miterlimit:2;">
    <g transform="matrix(1,0,0,1,-8061.45,-2469.43)">
        <g id="material_ui-logo">
        </g>
        <g id="colormind-logo">
        </g>
        <g id="synology-logo">
        </g>
        <g id="dimensions-logo">
        </g>
        <g id="dimensions">
        </g>
        <g id="svgator-logo">
        </g>
        <g id="eurecia-black" transform="matrix(1.01549,0,0,1.01549,1277.95,818.184)">
            <rect x="6680" y="1626.05" width="196.949" height="196.949" style="fill:none;"/>
            <clipPath id="_clip1">
                <rect x="6680" y="1626.05" width="196.949" height="196.949"/>
            </clipPath>
            <g clip-path="url(#_clip1)">
                <g transform="matrix(4.44443,0,0,4.44443,6680,1607.52)">
                    <path d="M15.054,22.757L10.046,22.76C10.387,21.613 10.93,20.645 11.664,19.895C13.113,18.414 14.76,18.253 15.399,18.253C16.548,18.253 17.629,18.7 18.441,19.512C19.254,20.324 19.702,21.403 19.702,22.549C19.702,26.497 16.394,30.246 16.361,30.282L17.955,31.708C18.113,31.532 21.842,27.324 21.842,22.549C21.842,20.831 21.172,19.215 19.954,18.001C18.738,16.785 17.119,16.117 15.399,16.117C13.474,16.117 11.554,16.95 10.132,18.403C9.032,19.526 7.744,21.532 7.512,24.869L15.054,24.869L15.054,22.757Z" style="fill:rgb(51,51,51);fill-rule:nonzero;"/>
                </g>
                <g transform="matrix(4.44443,0,0,4.44443,6680,1607.52)">
                    <path d="M22.077,37.686C19.134,37.686 16.025,36.364 13.546,34.06C11.487,32.143 10.152,29.795 9.749,27.44L7.584,27.44C7.993,30.377 9.584,33.294 12.09,35.625C14.96,38.294 18.601,39.824 22.079,39.824C29.073,39.824 34.806,34.331 35.179,27.44L33.036,27.44C32.666,33.152 27.895,37.688 22.081,37.688" style="fill:rgb(51,51,51);fill-rule:nonzero;"/>
                </g>
                <g transform="matrix(4.44443,0,0,4.44443,6680,1607.52)">
                    <path d="M22.156,46.273C11.119,46.273 2.14,37.308 2.14,26.289C2.14,15.271 11.119,6.305 22.156,6.305C33.194,6.305 42.173,15.271 42.173,26.289C42.173,37.308 33.194,46.273 22.156,46.273ZM22.156,4.169C9.939,4.169 -0,14.093 -0,26.289C-0,38.486 9.939,48.409 22.156,48.409C34.373,48.409 44.313,38.486 44.313,26.289C44.313,14.093 34.372,4.169 22.156,4.169Z" style="fill:rgb(51,51,51);fill-rule:nonzero;"/>
                </g>
                <g transform="matrix(4.44443,0,0,4.44443,6680,1607.52)">
                    <path d="M24.487,22.746L24.487,24.865L34.815,24.865L34.813,22.743L32.235,22.743L35.045,19.935L33.53,18.426L30.72,21.233L30.718,17.001L28.578,17.003L28.58,21.233L25.715,18.376L24.204,19.886L27.069,22.744L24.487,22.746Z" style="fill:rgb(51,51,51);fill-rule:nonzero;"/>
                </g>
            </g>
        </g>
    </g>
</svg>
