<?xml version="1.0" encoding="UTF-8" standalone="no"?>
<!DOCTYPE svg PUBLIC "-//W3C//DTD SVG 1.1//EN" "http://www.w3.org/Graphics/SVG/1.1/DTD/svg11.dtd">
<svg width="100%" height="100%" viewBox="0 0 201 201" version="1.1" xmlns="http://www.w3.org/2000/svg" xmlns:xlink="http://www.w3.org/1999/xlink" xml:space="preserve" xmlns:serif="http://www.serif.com/" style="fill-rule:evenodd;clip-rule:evenodd;stroke-linejoin:round;stroke-miterlimit:2;">
    <g transform="matrix(1,0,0,1,-6677,-2185)">
        <g id="hasty-color" transform="matrix(1.01549,0,0,1.01549,-105.588,534.417)">
            <rect x="6680" y="1626.05" width="196.949" height="196.949" style="fill:none;"/>
            <clipPath id="_clip1">
                <rect x="6680" y="1626.05" width="196.949" height="196.949"/>
            </clipPath>
            <g clip-path="url(#_clip1)">
                <g id="hasty" transform="matrix(0.227711,0,0,0.227711,5507.8,1408.62)">
                    <g transform="matrix(1,0,0,1,5195.36,958.53)">
                        <path d="M175.11,37.89C199.364,13.625 232.302,-0.023 266.61,-0.023C300.918,-0.023 333.856,13.625 358.11,37.89L769.71,449.59L678.23,541.06C628.047,591.239 545.463,591.239 495.28,541.06L358.06,678.24L266.58,586.76L495.28,358.06L175.11,37.89ZM266.59,769.7L175.11,678.22C150.847,702.475 137.201,735.412 137.201,769.72C137.201,804.028 150.847,836.965 175.11,861.22L266.59,769.7Z" style="fill:rgb(34,73,145);fill-rule:nonzero;"/>
                    </g>
                    <g transform="matrix(1,0,0,1,5195.36,958.53)">
                        <path d="M37.89,449.59C13.627,425.335 -0.019,392.398 -0.019,358.09C-0.019,323.782 13.627,290.845 37.89,266.59L129.37,358.07L266.57,220.86L358.04,312.33L220.83,449.52L449.53,678.22C473.793,702.475 487.439,735.412 487.439,769.72C487.439,804.028 473.793,836.965 449.53,861.22L37.89,449.59Z" style="fill:rgb(60,128,255);fill-rule:nonzero;"/>
                    </g>
                </g>
            </g>
        </g>
    </g>
</svg>
