<?xml version="1.0" encoding="UTF-8" standalone="no"?>
<!DOCTYPE svg PUBLIC "-//W3C//DTD SVG 1.1//EN" "http://www.w3.org/Graphics/SVG/1.1/DTD/svg11.dtd">
<svg width="100%" height="100%" viewBox="0 0 201 201" version="1.1" xmlns="http://www.w3.org/2000/svg" xmlns:xlink="http://www.w3.org/1999/xlink" xml:space="preserve" xmlns:serif="http://www.serif.com/" style="fill-rule:evenodd;clip-rule:evenodd;stroke-linejoin:round;stroke-miterlimit:2;">
    <g transform="matrix(1,0,0,1,-8061,-2185)">
        <g id="miro-color" transform="matrix(1.01549,0,0,1.01549,1277.95,534.417)">
            <rect x="6680" y="1626.05" width="196.949" height="196.949" style="fill:none;"/>
            <g transform="matrix(4.37664,0,0,4.37664,6669.06,1619.49)">
                <path d="M33.3,6L28,6L32.4,13.7L22.8,6L17.5,6L22.3,15.4L12.3,6L7,6L12.3,18L7,42L12.3,42L22.4,16.3L17.5,42L22.8,42L32.5,14.6L28.1,42L33.4,42L43,12L33.3,6Z" style="fill:rgb(5,0,56);"/>
            </g>
        </g>
    </g>
</svg>
