<?xml version="1.0" encoding="UTF-8" standalone="no"?>
<!DOCTYPE svg PUBLIC "-//W3C//DTD SVG 1.1//EN" "http://www.w3.org/Graphics/SVG/1.1/DTD/svg11.dtd">
<svg width="100%" height="100%" viewBox="0 0 201 201" version="1.1" xmlns="http://www.w3.org/2000/svg" xmlns:xlink="http://www.w3.org/1999/xlink" xml:space="preserve" xmlns:serif="http://www.serif.com/" style="fill-rule:evenodd;clip-rule:evenodd;stroke-linejoin:round;stroke-miterlimit:2;">
    <g transform="matrix(1,0,0,1,-9681,-2439)">
        <g id="moho-color" transform="matrix(1.01549,0,0,1.01549,2898.16,787.849)">
            <rect x="6680" y="1626.05" width="196.949" height="196.949" style="fill:none;"/>
            <g transform="matrix(0.126723,0,0,0.126723,5457.97,1934.33)">
                <g transform="matrix(4.16667,0,0,4.16667,9505.8,-2309.81)">
                    <path d="M202.433,157.312C202.433,196.067 202.459,234.822 202.382,273.579C202.375,276.303 202.134,279.253 201.109,281.705C199.102,286.509 193.492,289.273 188.769,288.453C183.452,287.531 178.688,282.726 177.926,277.296C177.67,275.464 177.832,273.568 177.832,271.701C177.826,194.89 177.796,118.081 177.903,41.27C177.907,37.911 178.582,34.273 179.965,31.264C182.226,26.352 188.385,23.953 193.272,25.245C198.7,26.679 202.268,30.928 202.373,36.843C202.548,46.645 202.42,56.454 202.42,66.26L202.42,157.312L202.433,157.312ZM224.873,156.838C224.871,116.921 224.933,77.002 224.845,37.087C224.804,18.78 209.65,3.503 191.878,3.011C174.954,2.539 156.957,16.846 157,39.646C157.147,117.848 156.981,196.05 157.167,274.249C157.182,279.708 158.145,285.602 160.308,290.534C167.367,306.636 181.934,313.45 198.335,310.216C214.085,307.11 225.14,290.949 224.999,275.89C224.907,265.97 224.854,256.049 224.824,246.129C224.736,216.367 224.873,186.601 224.873,156.838Z" style="fill:rgb(255,95,86);"/>
                </g>
                <g transform="matrix(4.16667,0,0,4.16667,9505.8,-1768.14)">
                    <path d="M84.748,123.648C84.283,123.635 83.819,123.622 83.354,123.608C76.806,82.459 70.258,41.31 63.71,0.152L33,0.152L33,180.738L54.463,180.738L54.463,63.462C54.889,63.44 55.315,63.417 55.741,63.395C62.315,102.583 68.891,141.769 75.471,181L92.832,181C98.776,141.304 104.613,102.328 110.45,63.35C110.951,63.395 111.453,63.44 111.957,63.484L111.957,180.852L133,180.852L133,0L103.649,0C97.349,41.223 91.048,82.435 84.748,123.648Z" style="fill:rgb(255,95,86);"/>
                </g>
                <g transform="matrix(4.16667,0,0,4.16667,9505.8,-1768.14)">
                    <path d="M289.675,64.322L263.536,64.322L263.536,2.012C258.608,2.012 254.312,1.977 250.017,2.027C247.784,2.054 245.553,2.233 243,2.359L243,180.929L263.852,180.929L263.852,87.177L290.096,87.177L290.096,181L311,181L311,2.368L289.675,2.368L289.675,64.322Z" style="fill:rgb(255,95,86);"/>
                </g>
                <g transform="matrix(4.16667,0,0,4.16667,9505.8,-1768.14)">
                    <path d="M383.478,145.643C383.393,154.906 375.087,160.699 366.985,157.375C362.423,155.503 359.739,151.828 359.047,146.795C358.763,144.722 358.895,142.582 358.895,140.471C358.88,106.454 358.859,72.434 358.904,38.414C358.906,35.875 359.011,33.2 359.754,30.818C361.744,24.439 367.077,21.263 373.551,22.16C379.175,22.941 383.436,27.916 383.478,34.438C383.598,52.971 383.521,71.506 383.521,90.041C383.53,108.576 383.65,127.111 383.478,145.643ZM405.895,132.17C405.85,118.267 405.946,104.363 405.948,90.458C405.948,71.919 405.852,53.38 405.974,34.843C406.117,12.913 384.94,-7.09 359.622,2.436C346.152,7.502 338.107,20.6 338.058,36.708C337.953,72.611 338.011,108.516 338.073,144.419C338.077,146.969 338.566,149.533 338.979,152.064C342.028,170.774 357.474,182.855 376.376,180.766C393.226,178.903 406.201,163.009 405.998,146.074C405.942,141.439 405.912,136.805 405.895,132.17Z" style="fill:rgb(255,95,86);"/>
                </g>
            </g>
        </g>
    </g>
</svg>
