<?xml version="1.0" encoding="UTF-8" standalone="no"?>
<!DOCTYPE svg PUBLIC "-//W3C//DTD SVG 1.1//EN" "http://www.w3.org/Graphics/SVG/1.1/DTD/svg11.dtd">
<svg width="100%" height="100%" viewBox="0 0 201 200" version="1.1" xmlns="http://www.w3.org/2000/svg" xmlns:xlink="http://www.w3.org/1999/xlink" xml:space="preserve" xmlns:serif="http://www.serif.com/" style="fill-rule:evenodd;clip-rule:evenodd;stroke-linejoin:round;stroke-miterlimit:2;">
    <g transform="matrix(1,0,0,1,-8288,-1626)">
        <g id="sketchup-color" transform="matrix(1.01549,0,0,1.01549,1504.53,-25.2437)">
            <rect x="6680" y="1626.05" width="196.949" height="196.949" style="fill:none;"/>
            <g transform="matrix(1.57543,0,0,1.57543,386.132,-171.985)">
                <g transform="matrix(1,0,0,1,4007.42,1149.08)">
                    <path d="M100.1,24.02L64.69,3.61C64.69,3.61 59.08,0.33 50.13,0.33C40.81,0.33 35.41,3.71 35.41,3.71L2.61,22.48L52.51,51.16L52.51,109.12L85.35,90.37C85.35,90.37 91.22,87.13 95.68,79.43C99.61,72.65 100.1,66.09 100.1,66.09L100.1,24.02ZM46.7,33.46C46.7,33.46 54.02,32.11 60.21,35.68C66.4,39.25 70.05,41.35 70.05,41.35C70.05,41.35 70.06,46.32 70.06,53.75C70.06,59.7 65.02,65.87 65.02,65.87L65.03,44.04L46.7,33.46ZM75.72,81.34L65.03,87.47L65.03,81.72L73.35,76.96C81.27,71.25 82.58,62.83 82.58,59.91L82.55,34.05L59.86,20.99C59.86,20.99 56.41,18.73 50.21,18.73C44.01,18.73 40.63,20.82 40.63,20.82L32.66,25.4L27.63,22.49L38.64,16.2C38.64,16.2 42.95,13.81 50.17,13.81C56.8,13.81 61.96,16.4 61.96,16.4L87.58,31.2L87.55,59.42C87.73,63.76 85.71,74.36 75.72,81.34Z" style="fill:rgb(0,95,158);fill-rule:nonzero;"/>
                </g>
                <g transform="matrix(1,0,0,1,4007.42,1149.08)">
                    <path d="M0.09,41.25L35.07,61.32L35.04,67.3L15.14,55.89L2.62,63.01L35.02,81.68L35.04,87.44L0.33,67.47C0.42,69.81 2.54,77.02 6.6,82.6C10.72,88.25 15.42,90.65 15.42,90.65L47.5,109.12L47.5,54.04L0.12,26.83L0.09,41.25Z" style="fill:rgb(0,95,158);fill-rule:nonzero;"/>
                </g>
            </g>
        </g>
    </g>
</svg>
