<?xml version="1.0" encoding="UTF-8" standalone="no"?>
<!DOCTYPE svg PUBLIC "-//W3C//DTD SVG 1.1//EN" "http://www.w3.org/Graphics/SVG/1.1/DTD/svg11.dtd">
<svg width="100%" height="100%" viewBox="0 0 200 200" version="1.1" xmlns="http://www.w3.org/2000/svg" xmlns:xlink="http://www.w3.org/1999/xlink" xml:space="preserve" xmlns:serif="http://www.serif.com/" style="fill-rule:evenodd;clip-rule:evenodd;stroke-linejoin:round;stroke-miterlimit:2;">
    <rect id="slick-color" x="0" y="-0" width="200" height="200" style="fill:none;"/>
    <clipPath id="_clip1">
        <rect x="0" y="-0" width="200" height="200"/>
    </clipPath>
    <g clip-path="url(#_clip1)">
        <path d="M25.899,143.559C22.234,143.559 19.433,142.713 17.495,141.022C15.557,139.331 14.588,137.428 14.588,135.314C14.588,133.482 15.257,131.896 16.596,130.557C17.935,129.218 19.908,128.549 22.516,128.549C23.432,128.549 24.507,128.637 25.74,128.813C26.973,128.989 27.907,129.112 28.541,129.183C28.471,127.35 28.066,125.624 27.326,124.003C26.586,122.382 25.652,120.814 24.524,119.299C23.397,117.784 22.34,116.463 21.353,115.335C19.168,119.493 17.001,122.946 14.852,125.694C12.703,128.443 10.359,131.05 7.822,133.517C6.554,134.785 5.215,135.42 3.805,135.42C2.678,135.42 1.762,135.014 1.057,134.204C0.352,133.393 -0,132.389 -0,131.191C-0,129.782 0.493,128.478 1.48,127.28L2.854,125.589C6.73,120.797 9.655,116.85 11.628,113.749C12.826,111.706 14.235,108.975 15.856,105.557C17.477,102.139 19.063,98.598 20.613,94.933C21.952,91.833 24.736,90.282 28.964,90.282C30.937,90.282 32.311,90.458 33.087,90.811C33.862,91.163 34.249,91.727 34.249,92.502C34.249,92.925 34.109,93.594 33.827,94.51C33.545,95.427 33.157,96.343 32.664,97.259C31.395,99.796 30.761,101.945 30.761,103.707C30.761,104.764 31.131,105.927 31.871,107.195C32.611,108.464 33.756,110.05 35.307,111.952C37.562,114.912 39.271,117.432 40.433,119.51C41.596,121.589 42.178,123.862 42.178,126.329C42.178,127.033 42.107,128.02 41.966,129.288C45.419,127.949 49.471,124.391 54.123,118.612C54.968,117.625 55.92,117.132 56.977,117.132C57.893,117.132 58.615,117.555 59.144,118.401C59.672,119.246 59.937,120.409 59.937,121.889C59.937,124.567 59.267,126.751 57.928,128.443C54.405,132.812 51.039,135.79 47.833,137.375C44.626,138.961 40.662,139.824 35.941,139.965C33.122,142.361 29.774,143.559 25.899,143.559Z" style="fill:rgb(52,152,219);fill-rule:nonzero;"/>
        <path d="M91.438,117.132C92.354,117.132 93.076,117.555 93.605,118.401C94.133,119.246 94.397,120.409 94.397,121.889C94.397,124.708 93.728,126.892 92.389,128.443C89.359,132.178 86.064,135.243 82.505,137.639C78.946,140.035 74.912,141.233 70.402,141.233C64.2,141.233 59.602,138.415 56.607,132.777C53.612,127.139 52.114,119.845 52.114,110.895C52.114,102.298 53.224,92.502 55.444,81.508C57.664,70.515 60.941,61.071 65.275,53.179C69.609,45.286 74.771,41.339 80.761,41.339C84.144,41.339 86.804,42.907 88.742,46.043C90.68,49.179 91.649,53.672 91.649,59.521C91.649,67.907 89.323,77.632 84.672,88.696C80.021,99.761 73.714,110.719 65.751,121.572C66.244,124.461 67.054,126.522 68.182,127.756C69.309,128.989 70.789,129.606 72.622,129.606C75.511,129.606 78.048,128.778 80.233,127.121C82.417,125.465 85.201,122.629 88.584,118.612C89.429,117.625 90.381,117.132 91.438,117.132ZM78.436,51.804C76.815,51.804 74.982,54.729 72.939,60.578C70.895,66.427 69.098,73.686 67.548,82.354C65.997,91.022 65.152,99.338 65.011,107.301C70.014,99.056 73.996,90.793 76.956,82.513C79.915,74.232 81.395,66.674 81.395,59.838C81.395,54.482 80.409,51.804 78.436,51.804Z" style="fill:rgb(52,152,219);fill-rule:nonzero;"/>
        <path d="M99.683,84.468C96.723,84.468 94.503,83.781 93.023,82.407C91.543,81.033 90.803,79.112 90.803,76.646C90.803,74.179 91.772,72.118 93.71,70.462C95.648,68.806 98.062,67.978 100.951,67.978C103.559,67.978 105.673,68.612 107.294,69.88C108.915,71.149 109.725,72.946 109.725,75.272C109.725,78.09 108.809,80.328 106.977,81.984C105.144,83.64 102.713,84.468 99.683,84.468ZM98.837,141.233C94.257,141.233 90.927,139.613 88.848,136.371C86.769,133.129 85.729,128.83 85.729,123.475C85.729,120.303 86.135,116.233 86.945,111.265C87.755,106.297 88.795,101.663 90.063,97.365C90.698,95.109 91.543,93.559 92.6,92.713C93.658,91.868 95.349,91.445 97.674,91.445C101.268,91.445 103.066,92.643 103.066,95.039C103.066,96.801 102.396,100.888 101.057,107.301C99.366,115.053 98.52,120.303 98.52,123.052C98.52,125.166 98.802,126.787 99.366,127.914C99.93,129.042 100.881,129.606 102.22,129.606C103.488,129.606 105.074,128.725 106.977,126.963C108.879,125.201 111.416,122.417 114.588,118.612C115.433,117.625 116.385,117.132 117.442,117.132C118.358,117.132 119.08,117.555 119.609,118.401C120.137,119.246 120.402,120.409 120.402,121.889C120.402,124.708 119.732,126.892 118.393,128.443C111.416,136.97 104.898,141.233 98.837,141.233Z" style="fill:rgb(52,152,219);fill-rule:nonzero;"/>
        <path d="M132.03,141.233C125.123,141.233 119.75,139.278 115.909,135.367C112.068,131.455 110.148,126.293 110.148,119.88C110.148,114.172 111.276,109.169 113.531,104.87C115.786,100.571 118.71,97.259 122.304,94.933C125.899,92.608 129.669,91.445 133.615,91.445C137.491,91.445 140.504,92.59 142.653,94.88C144.803,97.171 145.877,100.113 145.877,103.707C145.877,106.667 145.226,109.169 143.922,111.212C142.618,113.256 140.909,114.278 138.795,114.278C137.456,114.278 136.381,113.961 135.571,113.327C134.76,112.692 134.355,111.811 134.355,110.684C134.355,110.191 134.426,109.627 134.567,108.992C134.708,108.358 134.813,107.9 134.884,107.618C135.236,106.561 135.412,105.575 135.412,104.658C135.412,103.742 135.183,103.038 134.725,102.544C134.267,102.051 133.615,101.804 132.77,101.804C131.149,101.804 129.634,102.527 128.224,103.971C126.815,105.416 125.687,107.372 124.841,109.838C123.996,112.305 123.573,115.018 123.573,117.978C123.573,126.152 127.132,130.24 134.249,130.24C137.139,130.24 140.257,129.271 143.605,127.333C146.952,125.395 150.247,122.488 153.488,118.612C154.334,117.625 155.285,117.132 156.342,117.132C157.259,117.132 157.981,117.555 158.51,118.401C159.038,119.246 159.302,120.409 159.302,121.889C159.302,124.567 158.633,126.751 157.294,128.443C153.982,132.53 150.018,135.684 145.402,137.904C140.786,140.124 136.328,141.233 132.03,141.233Z" style="fill:rgb(52,152,219);fill-rule:nonzero;"/>
        <path d="M195.666,129.711C198.555,130.275 200,131.861 200,134.468C200,136.23 199.207,137.798 197.622,139.172C196.036,140.546 193.763,141.233 190.803,141.233C185.729,141.233 181.589,139.665 178.383,136.529C175.176,133.393 173.573,129.288 173.573,124.214C173.573,121.466 174.982,119.493 177.801,118.295C180.902,116.956 183.122,115.529 184.461,114.014C185.8,112.498 186.469,110.649 186.469,108.464C186.469,107.195 186.205,106.244 185.677,105.61C185.148,104.976 184.496,104.658 183.721,104.658C181.818,104.658 179.722,106.033 177.431,108.781C175.141,111.529 173.009,115.071 171.036,119.405C169.063,123.739 167.512,128.196 166.385,132.777C165.61,136.089 164.711,138.327 163.689,139.489C162.667,140.652 161.064,141.233 158.879,141.233C156.695,141.233 155.092,140.441 154.07,138.855C153.048,137.269 152.361,134.821 152.008,131.508C151.656,128.196 151.48,123.334 151.48,116.921C151.48,106.068 152.59,94.757 154.81,82.988C157.03,71.219 160.307,61.336 164.641,53.337C168.975,45.338 174.172,41.339 180.233,41.339C183.474,41.339 186.099,42.731 188.108,45.515C190.116,48.298 191.121,51.91 191.121,56.35C191.121,63.467 189.042,70.849 184.884,78.496C180.726,86.142 173.961,95.074 164.588,105.293C164.376,108.957 164.271,112.728 164.271,116.603C167.653,107.794 171.529,101.399 175.899,97.417C180.268,93.436 184.355,91.445 188.161,91.445C191.684,91.445 194.521,92.643 196.67,95.039C198.82,97.435 199.894,100.395 199.894,103.918C199.894,107.794 198.908,111.353 196.934,114.595C194.961,117.837 191.579,120.726 186.786,123.263C187.209,125.377 188.073,126.84 189.376,127.65C190.68,128.46 192.777,129.148 195.666,129.711ZM178.013,51.804C176.744,51.804 175.335,53.619 173.784,57.248C172.234,60.878 170.736,65.775 169.292,71.942C167.847,78.108 166.667,84.821 165.751,92.079C170.12,86.935 173.732,81.332 176.586,75.272C179.44,69.211 180.867,63.714 180.867,58.781C180.867,56.526 180.62,54.799 180.127,53.601C179.634,52.403 178.929,51.804 178.013,51.804Z" style="fill:rgb(52,152,219);fill-rule:nonzero;"/>
    </g>
</svg>
