<?xml version="1.0" encoding="UTF-8" standalone="no"?>
<!DOCTYPE svg PUBLIC "-//W3C//DTD SVG 1.1//EN" "http://www.w3.org/Graphics/SVG/1.1/DTD/svg11.dtd">
<svg width="100%" height="100%" viewBox="0 0 201 201" version="1.1" xmlns="http://www.w3.org/2000/svg" xmlns:xlink="http://www.w3.org/1999/xlink" xml:space="preserve" xmlns:serif="http://www.serif.com/" style="fill-rule:evenodd;clip-rule:evenodd;stroke-linejoin:round;stroke-miterlimit:2;">
    <g transform="matrix(1,0,0,1,-9219,-2439)">
        <g id="vectorizer-white" transform="matrix(1.01549,0,0,1.01549,2435.96,787.849)">
            <rect x="6680" y="1626.05" width="196.949" height="196.949" style="fill:none;"/>
            <g transform="matrix(0.332777,0,0,0.332777,6662.1,1608.05)">
                <path d="M513.82,340.28L513.47,342.79L507.9,380.29C507.847,380.917 507.76,381.147 507.64,380.98C506.547,386.14 505.453,391.307 504.36,396.48C503.147,402.193 501.86,407.313 500.5,411.84C494.387,432.173 486.857,451.99 477.91,471.29C477.803,471.697 477.637,472.017 477.41,472.25L472.99,481.54L472.5,482.25C471.3,484.223 470.12,486.227 468.96,488.26C464.847,495.48 460.46,502.147 455.8,508.26C440,529.013 421.047,545.083 398.94,556.47C382.913,564.723 366.443,570.507 349.53,573.82C343.69,574.967 335.863,576.157 326.05,577.39L323.69,577.64L313.66,578.5L307.98,578.59L295.46,578.61L289.22,578.46L279.3,577.67L277.71,577.48C273.943,576.86 270.173,576.197 266.4,575.49C252.867,572.95 240.613,568.63 229.64,562.53C219.66,556.99 209.39,548.81 202.53,539.33C198.277,533.463 194.65,527.067 191.65,520.14C189.64,515.5 188.15,509.87 186.62,504.7C186.433,504.413 186.337,504.147 186.33,503.9C184.023,492.687 182.813,481.303 182.7,469.75C182.61,460.61 184.51,451.39 186.42,442.5L186.51,441.71L192.29,416.04C192.383,415.72 192.51,415.453 192.67,415.24L203.23,372.49C203.317,372.017 203.443,371.76 203.61,371.72L209.22,348.48L209.53,347.7L215.25,324.47C215.39,324.243 215.463,323.983 215.47,323.69C215.637,323.643 215.75,323.497 215.81,323.25C218.26,314.01 220.05,305.77 222.5,295.32C224.353,287.44 225.917,279.49 227.19,271.47C227.43,271.17 227.527,270.75 227.48,270.21C227.64,270.13 227.74,269.977 227.78,269.75C231.333,251.67 232.04,233.99 229.9,216.71C228.973,209.23 226.58,202.46 222.72,196.4C217.4,188.07 207.66,186.56 198.7,189.04C196.167,189.74 192.783,191.61 188.55,194.65C180.11,200.703 171.943,206.583 164.05,212.29C158.8,216.07 146.93,220.07 141.32,215.5C139.513,214.033 138.45,212.097 138.13,209.69C137.13,202.19 137.527,194.307 139.32,186.04C139.393,185.72 139.503,185.453 139.65,185.24C140.81,181.95 141.87,178.5 143.35,175.41C146.937,167.923 151.503,161.637 157.05,156.55C176.223,138.963 199.22,128.923 226.04,126.43C229.14,126.137 233.753,126.03 239.88,126.11C245.393,126.17 249.973,126.533 253.62,127.2C272.493,130.647 287.32,140.637 298.1,157.17C310.693,176.503 316.38,197.843 315.16,221.19C315.007,224.143 314.88,227.087 314.78,230.02L314.7,233L312.87,250.71L312.66,253.06C311.59,260.1 310.64,267.08 308.96,274.09C307.09,281.91 305.47,289.57 303.51,297.59C301.497,305.797 299.62,314.03 297.88,322.29L297.67,322.97C297.15,324.63 296.693,326.327 296.3,328.06C292.653,344.167 288.917,360.253 285.09,376.32C283.757,381.94 282.023,390.433 279.89,401.8L279.68,403.03L278.83,406.78L278.79,407.49C274.857,425.863 273.377,444.343 274.35,462.93C274.737,470.323 275.657,475.79 277.11,479.33C280.85,488.42 289.51,496.14 299.24,499.08C309.3,502.113 319.93,502.983 331.13,501.69C346.55,499.91 360.563,494.893 373.17,486.64C384.537,479.207 394.36,470.707 402.64,461.14C412.433,449.82 420.343,438.307 426.37,426.6C431.163,417.287 435.677,407.07 439.91,395.95C441.017,393.043 442.097,390.137 443.15,387.23C443.143,386.937 443.213,386.71 443.36,386.55C445.98,380.2 447.49,373.52 449.36,366.99L449.45,366.21C449.51,366.19 449.577,366.15 449.65,366.09C449.71,366.043 449.753,365.977 449.78,365.89C450.92,361.857 451.87,357.797 452.63,353.71C453.83,347.26 455.7,341.16 456.82,334.8C457.933,328.46 459.273,320.313 460.84,310.36C460.893,310 460.747,309.77 460.4,309.67C460.113,309.583 459.743,309.58 459.29,309.66L455.72,309.4C445.933,308.327 436.353,306.42 426.98,303.68C426.627,303.613 426.387,303.5 426.26,303.34C423.767,302.387 421.253,301.433 418.72,300.48C397.91,292.68 381.42,276.98 371.37,257.2C370.71,255.907 369.603,253.28 368.05,249.32C366.85,246.267 365.91,243.57 365.23,241.23C360.117,223.637 358.79,205.73 361.25,187.51C361.43,187.17 361.547,186.76 361.6,186.28C362.77,181.67 363.81,176.45 365.43,172.34C374.02,150.57 391.62,132.93 414.4,126.19C431.967,120.997 449.327,120.59 466.48,124.97C481.85,128.9 494.47,138.85 502.9,152.37C509.54,163.023 514.023,174.49 516.35,186.77C518.277,196.917 519.413,206.353 519.76,215.08C520.2,226.233 520.09,237.453 519.43,248.74C519.429,248.75 519.429,248.76 519.429,248.771C519.429,249.072 519.677,249.321 519.979,249.321C520.066,249.321 520.152,249.3 520.23,249.26C526.137,246.267 531.517,243.247 536.37,240.2C540.557,237.567 543.72,236.023 545.86,235.57C549.627,234.77 553.267,234.827 556.78,235.74C562.81,237.31 562.95,241.74 562.88,247.53C562.813,252.73 562.173,257.147 560.96,260.78C556.673,273.647 548.757,283.953 537.21,291.7C530.95,295.907 524.763,299.137 518.65,301.39C517.73,301.723 517.22,302.61 517.12,304.05C516.253,316.15 515.153,328.227 513.82,340.28ZM467.34,228.33L467.26,226.95C468.09,212.11 467.69,201.39 464.71,188.57C463.03,181.3 457.74,175.11 450.03,174.49C439.6,173.65 437.09,184.73 437,193.26C436.92,201.64 438.27,210.21 440.37,217.16C444.25,230.02 454.27,240.89 465.77,247.55C465.867,247.607 465.978,247.638 466.09,247.638C466.428,247.638 466.708,247.367 466.72,247.03L467.34,228.33Z" style="fill:white;fill-rule:nonzero;"/>
            </g>
        </g>
    </g>
</svg>
