<svg viewBox="0 0 201 200" xmlns="http://www.w3.org/2000/svg" fill-rule="evenodd" clip-rule="evenodd" stroke-linejoin="round" stroke-miterlimit="2"><path fill="none" d="M.773-.006h200v200h-200z"/><g fill-rule="nonzero"><path d="M142.874 57.894l-37.894-4.21-46.316 4.21-4.211 42.105 4.21 42.106 42.106 5.263 42.105-5.263 4.21-43.158-4.21-41.053z" fill="#fff"/><path d="M75.937 123.22c-3.147-2.126-5.326-5.231-6.516-9.337l7.306-3.01c.663 2.526 1.82 4.484 3.474 5.873 1.642 1.39 3.642 2.074 5.979 2.074 2.39 0 4.442-.726 6.157-2.18 1.716-1.452 2.58-3.305 2.58-5.546 0-2.295-.906-4.17-2.716-5.621-1.81-1.452-4.084-2.18-6.8-2.18H81.18v-7.23h3.789c2.336 0 4.305-.632 5.905-1.895 1.6-1.263 2.4-2.99 2.4-5.19 0-1.957-.716-3.515-2.147-4.683-1.431-1.168-3.242-1.758-5.442-1.758-2.148 0-3.853.569-5.116 1.716-1.264 1.147-2.18 2.558-2.758 4.22l-7.231-3.01c.957-2.716 2.716-5.116 5.294-7.19 2.58-2.073 5.874-3.115 9.874-3.115 2.957 0 5.62.569 7.979 1.716 2.358 1.147 4.21 2.737 5.547 4.757 1.337 2.032 2 4.306 2 6.831 0 2.58-.62 4.758-1.863 6.548-1.242 1.79-2.769 3.157-4.58 4.116v.43c2.39 1 4.338 2.527 5.874 4.58 1.527 2.053 2.295 4.506 2.295 7.369 0 2.863-.727 5.42-2.18 7.663-1.452 2.242-3.463 4.01-6.01 5.294-2.557 1.284-5.431 1.937-8.62 1.937-3.695.01-7.105-1.053-10.253-3.179zM120.768 86.968l-7.979 5.8-4.01-6.084 14.39-10.38h5.515v48.958h-7.916V86.968z" fill="#1a73e8"/><path d="M142.874 180l37.894-37.895-18.947-8.421-18.947 8.42-8.42 18.948 8.42 18.947z" fill="#ea4335"/><path d="M50.242 161.052l8.421 18.947h84.21v-37.894h-84.21l-8.42 18.947z" fill="#34a853"/><path d="M33.4 20c-6.979 0-12.631 5.652-12.631 12.63v109.474l18.947 8.42 18.947-8.42v-84.21h84.21l8.421-18.947-8.42-18.948H33.4z" fill="#4285f4"/><path d="M20.769 142.105v25.263c0 6.98 5.652 12.631 12.63 12.631h25.264v-37.894H20.769z" fill="#188038"/><path d="M142.874 57.894v84.21h37.894v-84.21l-18.947-8.421-18.947 8.42z" fill="#fbbc04"/><path d="M180.768 57.894V32.63c0-6.98-5.652-12.632-12.63-12.632h-25.264v37.895h37.894z" fill="#1967d2"/></g></svg>