<?xml version="1.0" encoding="UTF-8" standalone="no"?>
<!DOCTYPE svg PUBLIC "-//W3C//DTD SVG 1.1//EN" "http://www.w3.org/Graphics/SVG/1.1/DTD/svg11.dtd">
<svg width="100%" height="100%" viewBox="0 0 201 200" version="1.1" xmlns="http://www.w3.org/2000/svg" xmlns:xlink="http://www.w3.org/1999/xlink" xml:space="preserve" xmlns:serif="http://www.serif.com/" style="fill-rule:evenodd;clip-rule:evenodd;stroke-linejoin:round;stroke-miterlimit:2;">
    <g transform="matrix(1,0,0,1,-9189,-1626)">
        <g id="calendar-color" transform="matrix(1.01549,0,0,1.01549,2406.3,-25.2437)">
            <rect x="6680" y="1626.05" width="196.949" height="196.949" style="fill:none;"/>
            <g id="Google_Calendar_icon_-2020-.svg" serif:id="Google_Calendar_icon_(2020).svg" transform="matrix(0.787795,0,0,0.787795,6778.47,1724.53)">
                <g transform="matrix(1,0,0,1,-100,-100)">
                    <g transform="matrix(1,0,0,1,3.75,3.75)">
                        <g>
                            <path d="M148.882,43.618L101.514,38.355L43.619,43.618L38.355,96.25L43.618,148.882L96.25,155.461L148.882,148.882L154.145,94.935L148.882,43.618Z" style="fill:white;fill-rule:nonzero;"/>
                            <path d="M65.211,125.276C61.277,122.618 58.553,118.737 57.066,113.605L66.198,109.842C67.027,113 68.474,115.447 70.54,117.184C72.593,118.921 75.093,119.776 78.014,119.776C81.001,119.776 83.567,118.868 85.711,117.052C87.855,115.236 88.935,112.92 88.935,110.118C88.935,107.25 87.803,104.907 85.54,103.092C83.277,101.277 80.435,100.368 77.04,100.368L71.764,100.368L71.764,91.329L76.5,91.329C79.421,91.329 81.882,90.54 83.882,88.961C85.882,87.382 86.882,85.224 86.882,82.474C86.882,80.027 85.987,78.079 84.198,76.619C82.409,75.159 80.145,74.422 77.395,74.422C74.711,74.422 72.579,75.133 71,76.567C69.421,78.001 68.276,79.764 67.553,81.843L58.514,78.08C59.711,74.685 61.909,71.685 65.132,69.093C68.356,66.501 72.474,65.198 77.474,65.198C81.171,65.198 84.5,65.909 87.448,67.343C90.395,68.777 92.711,70.764 94.382,73.29C96.053,75.829 96.882,78.672 96.882,81.829C96.882,85.053 96.106,87.776 94.553,90.013C93,92.25 91.092,93.96 88.829,95.158L88.829,95.697C91.816,96.947 94.25,98.855 96.171,101.421C98.079,103.987 99.039,107.053 99.039,110.632C99.039,114.211 98.131,117.408 96.315,120.211C94.499,123.014 91.986,125.224 88.802,126.829C85.605,128.434 82.013,129.25 78.026,129.25C73.408,129.263 69.145,127.934 65.211,125.276Z" style="fill:rgb(26,115,232);fill-rule:nonzero;"/>
                            <path d="M121.25,79.961L111.276,87.211L106.263,79.606L124.25,66.632L131.145,66.632L131.145,127.829L121.25,127.829L121.25,79.961Z" style="fill:rgb(26,115,232);fill-rule:nonzero;"/>
                            <path d="M148.882,196.25L196.25,148.882L172.566,138.356L148.882,148.882L138.356,172.566L148.882,196.25Z" style="fill:rgb(234,67,53);fill-rule:nonzero;"/>
                            <path d="M33.092,172.566L43.618,196.25L148.881,196.25L148.881,148.882L43.618,148.882L33.092,172.566Z" style="fill:rgb(52,168,83);fill-rule:nonzero;"/>
                            <path d="M12.039,-3.75C3.316,-3.75 -3.75,3.316 -3.75,12.039L-3.75,148.881L19.934,159.407L43.618,148.881L43.618,43.618L148.881,43.618L159.407,19.934L148.882,-3.75L12.039,-3.75Z" style="fill:rgb(66,133,244);fill-rule:nonzero;"/>
                            <path d="M-3.75,148.882L-3.75,180.461C-3.75,189.185 3.316,196.25 12.039,196.25L43.618,196.25L43.618,148.882L-3.75,148.882Z" style="fill:rgb(24,128,56);fill-rule:nonzero;"/>
                            <path d="M148.882,43.618L148.882,148.881L196.25,148.881L196.25,43.618L172.566,33.092L148.882,43.618Z" style="fill:rgb(251,188,4);fill-rule:nonzero;"/>
                            <path d="M196.25,43.618L196.25,12.039C196.25,3.315 189.184,-3.75 180.461,-3.75L148.882,-3.75L148.882,43.618L196.25,43.618Z" style="fill:rgb(25,103,210);fill-rule:nonzero;"/>
                        </g>
                    </g>
                </g>
            </g>
        </g>
    </g>
</svg>
