<svg viewBox="0 0 201 201" xmlns="http://www.w3.org/2000/svg" fill-rule="evenodd" clip-rule="evenodd" stroke-linejoin="round" stroke-miterlimit="2"><g transform="translate(-6782.76 -1650.583) scale(1.01549)"><path fill="none" d="M6680 1626.05h196.949v196.949H6680z"/><clipPath id="a"><path d="M6680 1626.05h196.949v196.949H6680z"/></clipPath><g clip-path="url(#a)"><path d="M6840.603 1678.951l30.062 30.062a21.7 21.7 0 010 30.687c-12.128 12.126-28.59 28.59-38.384 38.383-4.596 4.596-12.047 4.595-16.641.001-4.598-4.597-4.598-12.049-.003-16.644l37.085-37.085-22.841-22.842 10.722-22.562z" fill="#fff" fill-opacity=".56"/><path d="M6716.693 1769.762l-30.221-30.221a21.467 21.467 0 01-6.29-15.184c0-5.696 2.26-11.16 6.288-15.187l31.68-31.68a21.472 21.472 0 0115.186-6.287 21.468 21.468 0 0115.184 6.29l24.095 24.095-16.642 16.642-22.638-22.638-28.764 28.764 22.91 22.91-10.788 22.496zm0 0l16.642-16.642 27.093-27.093 1.578-1.577 23.386-23.386-.094-.094 23.477-23.478c8.387-8.386 21.982-8.387 30.368-.001l1.46 1.46-16.642 16.642-28.67 28.67.09.091-.093.094-16.485 16.799-.157-.157-30.128 30.128c-8.386 8.386-21.982 8.387-30.367.002l-1.458-1.458z" fill="#fff"/></g></g></svg>