<svg viewBox="0 0 200 200" xmlns="http://www.w3.org/2000/svg" fill-rule="evenodd" clip-rule="evenodd" stroke-linejoin="round" stroke-miterlimit="2"><path fill="none" d="M-.02-.006h200v200h-200z"/><g fill="#000e1c" fill-rule="nonzero"><path d="M31.346 99.994c0 27.164 15.787 50.639 38.678 61.763L37.288 72.065a68.366 68.366 0 00-5.942 27.929zM146.301 96.531c0-8.481-3.046-14.355-5.66-18.927-3.478-5.653-6.739-10.44-6.739-16.093 0-6.308 4.785-12.18 11.524-12.18.304 0 .593.037.89.054C134.105 38.2 117.838 31.37 99.972 31.37c-23.975 0-45.068 12.301-57.34 30.933 1.611.048 3.128.082 4.417.082 7.178 0 18.29-.871 18.29-.871 3.7-.218 4.135 5.215.44 5.653 0 0-3.718.437-7.855.654l24.991 74.334 15.018-45.042-10.692-29.295a125.043 125.043 0 01-7.196-.654c-3.698-.217-3.265-5.87.433-5.653 0 0 11.334.871 18.077.871 7.177 0 18.29-.87 18.29-.87 3.702-.219 4.136 5.215.44 5.652 0 0-3.726.438-7.855.654l24.8 73.772 6.845-22.874c2.967-9.492 5.225-16.31 5.225-22.185z"/><path d="M101.177 105.997l-20.59 59.832a68.624 68.624 0 0019.386 2.795 68.554 68.554 0 0022.79-3.89 6.026 6.026 0 01-.49-.945l-21.096-57.792zM160.19 67.069c.295 2.186.462 4.532.462 7.057 0 6.964-1.3 14.792-5.218 24.58l-20.962 60.608c20.402-11.897 34.125-34.001 34.125-59.319.001-11.931-3.047-23.15-8.407-32.926z"/><path d="M99.973 19.999c-44.11 0-79.998 35.885-79.998 79.995 0 44.115 35.888 79.999 79.998 79.999 44.108 0 80.001-35.884 80.001-79.999 0-44.11-35.893-79.995-80.001-79.995zm0 156.327c-42.087 0-76.33-34.242-76.33-76.332 0-42.087 34.242-76.327 76.33-76.327 42.085 0 76.326 34.24 76.326 76.327 0 42.09-34.24 76.332-76.326 76.332z"/></g></svg>