<svg viewBox="0 0 201 200" xmlns="http://www.w3.org/2000/svg" fill-rule="evenodd" clip-rule="evenodd" stroke-linejoin="round" stroke-miterlimit="2"><g transform="translate(-6782.87 -1651.244) scale(1.01549)"><path fill="none" d="M6680 1626.05h196.949v196.949H6680z"/><clipPath id="a"><path d="M6680 1626.05h196.949v196.949H6680z"/></clipPath><g clip-path="url(#a)"><path d="M6719.221 1688.037c4.52 0 8.854 1.794 12.054 4.994 3.2 3.2 4.995 7.535 4.995 12.054v38.88c0 4.52-1.794 8.854-4.995 12.054a17.043 17.043 0 01-12.054 4.995h-39.223v-43.083h14.947v28.136h21.498c2.69 0 4.88-2.19 4.88-4.88v-33.323c0-2.69-2.19-4.88-4.88-4.88h-36.445v-14.947h39.223zM6805.73 1688.037v14.947h-32.093a7.478 7.478 0 00-7.473 7.474 7.478 7.478 0 007.473 7.473h10.55c11.897 0 21.542 9.645 21.542 21.541s-9.645 21.542-21.541 21.542h-34.73v-14.947h34.73a6.597 6.597 0 006.594-6.595 6.597 6.597 0 00-6.594-6.594h-12.31a22.428 22.428 0 01-22.42-22.42 22.428 22.428 0 0122.42-22.421h33.851zM6835.86 1688.071l12.75 27.845 13.153-27.845h15.184v72.977H6862v-41.335l-13.628 28.85-12.749-27.846v40.33h-14.947v-72.976h15.184z" fill="#fff"/></g></g></svg>