<svg viewBox="0 0 201 201" xmlns="http://www.w3.org/2000/svg" fill-rule="evenodd" clip-rule="evenodd" stroke-linecap="round" stroke-linejoin="round" stroke-miterlimit="1.5"><path fill="none" d="M.225.655h200v200h-200z"/><path d="M124.45 54.66v115.21c0 4.507-1.79 8.83-4.979 12.014a16.974 16.974 0 01-12.014 4.979h-59.17a20.89 20.89 0 01-14.774-6.117 20.89 20.89 0 01-6.117-14.773V54.66h97.054z" fill="#f0b570"/><path d="M124.45 54.66v115.21c0 4.507-1.79 8.83-4.979 12.014a16.974 16.974 0 01-12.014 4.979h-59.17a20.89 20.89 0 01-14.774-6.117 20.89 20.89 0 01-6.117-14.773V54.66h97.054zm-6.002 6.002h-85.05v105.31a14.89 14.89 0 004.36 10.53 14.89 14.89 0 0010.528 4.36h59.171a10.991 10.991 0 0010.991-10.991V60.662z" fill="#e94c2c"/><path d="M89.667 183.577a16.992 16.992 0 01-22.198 16.178l-28.284-9.098a16.995 16.995 0 01-11.789-16.178V54.662l63.232 20.34a16.995 16.995 0 0111.788 16.178v34.195a4.899 4.899 0 01-2.003 3.946 4.884 4.884 0 01-4.367.699l-.005-.002a4.878 4.878 0 00-6.374 4.644v48.915z" fill="#e94c2c"/><path d="M94.547 67.251c7.869-7.344 7.869-30.427 41.969-47.215C171.57 2.776 182.157 9.544 194.443 2.32c-11.237 14.353-15.628 34.2-45.861 49.193-30.234 14.993-35.548 9.941-54.035 15.738z" fill="#e94c2c" stroke="#e94c2c" stroke-width="3.0007692"/><g><path d="M4367 1620c15-14 13.17-68.56 78.36-100.19 47.13-22.88 99.78-18.48 114.33-23.29-21.42 27.36-22.41 53.67-67.47 86.77-51.49 37.82-84.84 19.24-125.22 36.71z" fill="#e94c2c" stroke="#e94c2c" stroke-width="9.08" transform="matrix(.25635 .19682 -.20571 .26793 -678.875 -1216.995)"/></g></svg>