<?xml version="1.0" encoding="UTF-8" standalone="no"?>
<!DOCTYPE svg PUBLIC "-//W3C//DTD SVG 1.1//EN" "http://www.w3.org/Graphics/SVG/1.1/DTD/svg11.dtd">
<svg width="100%" height="100%" viewBox="0 0 201 201" version="1.1" xmlns="http://www.w3.org/2000/svg" xmlns:xlink="http://www.w3.org/1999/xlink" xml:space="preserve" xmlns:serif="http://www.serif.com/" style="fill-rule:evenodd;clip-rule:evenodd;stroke-linecap:round;stroke-linejoin:round;stroke-miterlimit:1.5;">
    <g transform="matrix(1,0,0,1,-7606,-2185)">
        <g id="edocperso-color" transform="matrix(1.01549,0,0,1.01549,822.752,534.417)">
            <rect x="6680" y="1626.05" width="196.949" height="196.949" style="fill:none;"/>
            <g transform="matrix(0.516611,0,0,0.516611,4694.04,854.721)">
                <g transform="matrix(1,0,0,1,-343,0)">
                    <path d="M4424,1596C4424,1596 4424,1747.56 4424,1815.61C4424,1824.2 4420.59,1832.44 4414.51,1838.51C4408.44,1844.59 4400.2,1848 4391.61,1848C4360.21,1848 4312.52,1848 4278.82,1848C4268.26,1848 4258.13,1843.81 4250.66,1836.34C4243.19,1828.87 4239,1818.74 4239,1808.18C4239,1737.16 4239,1596 4239,1596L4424,1596Z" style="fill:rgb(240,181,112);"/>
                    <path d="M4424,1596L4424,1815.61C4424,1824.2 4420.59,1832.44 4414.51,1838.51C4408.44,1844.59 4400.2,1848 4391.61,1848L4278.82,1848C4268.26,1848 4258.13,1843.81 4250.66,1836.34C4243.19,1828.87 4239,1818.74 4239,1808.18L4239,1596L4424,1596ZM4412.56,1607.44C4412.56,1607.44 4250.44,1607.44 4250.44,1607.44L4250.44,1808.18C4250.44,1815.71 4253.43,1822.93 4258.75,1828.25C4264.07,1833.57 4271.29,1836.56 4278.82,1836.56L4391.61,1836.56C4397.16,1836.56 4402.49,1834.36 4406.43,1830.42C4410.36,1826.5 4412.56,1821.16 4412.56,1815.61L4412.56,1607.44Z" style="fill:rgb(233,76,44);"/>
                </g>
                <g transform="matrix(0.772973,0.248649,0,1,619.368,-1054.02)">
                    <path d="M4392.56,1803.55C4392.56,1813.9 4386.16,1825.23 4375.34,1834.01C4364.52,1842.8 4350.57,1848 4337.82,1848C4314.28,1848 4287.73,1848 4268.07,1848C4250.75,1848 4239,1838.46 4239,1824.39C4239,1761.74 4239,1596 4239,1596L4394.93,1596C4412.25,1596 4424,1605.54 4424,1619.61C4424,1639.93 4424,1668.48 4424,1684.79C4424,1687.76 4422.16,1691.01 4419.06,1693.54C4415.95,1696.06 4411.95,1697.55 4408.29,1697.55C4408.28,1697.55 4408.28,1697.55 4408.28,1697.55C4404.62,1697.55 4400.61,1699.04 4397.51,1701.56C4394.4,1704.09 4392.56,1707.34 4392.56,1710.31C4392.56,1730.7 4392.56,1771.6 4392.56,1803.55Z" style="fill:rgb(233,76,44);"/>
                </g>
                <g transform="matrix(1,0,0,1,-343,0)">
                    <path d="M4367,1620C4382,1606 4382,1562 4447,1530C4513.82,1497.1 4534,1510 4557.42,1496.23C4536,1523.59 4527.63,1561.42 4470,1590C4412.37,1618.58 4402.24,1608.95 4367,1620Z" style="fill:rgb(233,76,44);stroke:rgb(233,76,44);stroke-width:5.72px;"/>
                </g>
                <g transform="matrix(0.488647,0.375177,-0.392121,0.510716,2549.73,-827.987)">
                    <path d="M4367,1620C4382,1606 4380.17,1551.44 4445.36,1519.81C4492.49,1496.93 4545.14,1501.33 4559.69,1496.52C4538.27,1523.88 4537.28,1550.19 4492.22,1583.29C4440.73,1621.11 4407.38,1602.53 4367,1620Z" style="fill:rgb(233,76,44);stroke:rgb(233,76,44);stroke-width:9.08px;"/>
                </g>
            </g>
        </g>
    </g>
</svg>
