<?xml version="1.0" encoding="UTF-8" standalone="no"?>
<!DOCTYPE svg PUBLIC "-//W3C//DTD SVG 1.1//EN" "http://www.w3.org/Graphics/SVG/1.1/DTD/svg11.dtd">
<svg width="100%" height="100%" viewBox="0 0 201 200" version="1.1" xmlns="http://www.w3.org/2000/svg" xmlns:xlink="http://www.w3.org/1999/xlink" xml:space="preserve" xmlns:serif="http://www.serif.com/" style="fill-rule:evenodd;clip-rule:evenodd;stroke-linejoin:round;stroke-miterlimit:2;">
    <g transform="matrix(1,0,0,1,-7135,-1626)">
        <g id="github-color" transform="matrix(1.01549,0,0,1.01549,351.564,-25.2437)">
            <rect x="6680" y="1626.05" width="196.949" height="196.949" style="fill:none;"/>
            <clipPath id="_clip1">
                <rect x="6680" y="1626.05" width="196.949" height="196.949"/>
            </clipPath>
            <g clip-path="url(#_clip1)">
                <g transform="matrix(12.3093,0,0,12.3093,6680,1626.05)">
                    <path d="M8,0C3.58,0 0,3.58 0,8C0,11.54 2.29,14.53 5.47,15.59C5.87,15.66 6.02,15.42 6.02,15.21C6.02,15.02 6.01,14.39 6.01,13.72C4,14.09 3.48,13.23 3.32,12.78C3.23,12.55 2.84,11.84 2.5,11.65C2.22,11.5 1.82,11.13 2.49,11.12C3.12,11.11 3.57,11.7 3.72,11.94C4.44,13.15 5.59,12.81 6.05,12.6C6.12,12.08 6.33,11.73 6.56,11.53C4.78,11.33 2.92,10.64 2.92,7.58C2.92,6.71 3.23,5.99 3.74,5.43C3.66,5.23 3.38,4.41 3.82,3.31C3.82,3.31 4.49,3.1 6.02,4.13C6.66,3.95 7.34,3.86 8.02,3.86C8.7,3.86 9.38,3.95 10.02,4.13C11.55,3.09 12.22,3.31 12.22,3.31C12.66,4.41 12.38,5.23 12.3,5.43C12.81,5.99 13.12,6.7 13.12,7.58C13.12,10.65 11.25,11.33 9.47,11.53C9.76,11.78 10.01,12.26 10.01,13.01C10.01,14.08 10,14.94 10,15.21C10,15.42 10.15,15.67 10.55,15.59C13.71,14.53 16,11.53 16,8C16,3.58 12.42,0 8,0Z" style="fill:url(#_Linear2);"/>
                </g>
            </g>
        </g>
    </g>
    <defs>
        <linearGradient id="_Linear2" x1="0" y1="0" x2="1" y2="0" gradientUnits="userSpaceOnUse" gradientTransform="matrix(8.10869,-13.7547,13.7547,8.10869,4.40135,15.1453)"><stop offset="0" style="stop-color:rgb(112,64,201);stop-opacity:1"/><stop offset="1" style="stop-color:rgb(122,63,199);stop-opacity:1"/></linearGradient>
    </defs>
</svg>
