<svg viewBox="0 0 200 200" xmlns="http://www.w3.org/2000/svg" fill-rule="evenodd" clip-rule="evenodd" stroke-linejoin="round" stroke-miterlimit="2"><path fill="none" d="M-.017-.006h200v200h-200z"/><path d="M13.628 175.02h31.819V97.749L-.008 63.658v97.726c0 7.546 6.114 13.637 13.636 13.637" fill="#4285f4" fill-rule="nonzero"/><path d="M154.537 175.02h31.818c7.546 0 13.637-6.113 13.637-13.636V63.657l-45.455 34.091" fill="#34a853" fill-rule="nonzero"/><path d="M154.537 38.657v59.091l45.455-34.09V45.475c0-16.864-19.25-26.478-32.728-16.364" fill="#fbbc04" fill-rule="nonzero"/><path d="M45.447 97.748v-59.09l54.545 40.908 54.545-40.909v59.091l-54.545 40.91" fill="#ea4335" fill-rule="nonzero"/><path d="M-.008 45.476v18.181l45.455 34.091v-59.09l-12.728-9.546c-13.5-10.114-32.727-.5-32.727 16.364" fill="#c5221f" fill-rule="nonzero"/></svg>