<?xml version="1.0" encoding="UTF-8" standalone="no"?>
<!DOCTYPE svg PUBLIC "-//W3C//DTD SVG 1.1//EN" "http://www.w3.org/Graphics/SVG/1.1/DTD/svg11.dtd">
<svg width="100%" height="100%" viewBox="0 0 201 200" version="1.1" xmlns="http://www.w3.org/2000/svg" xmlns:xlink="http://www.w3.org/1999/xlink" xml:space="preserve" xmlns:serif="http://www.serif.com/" style="fill-rule:evenodd;clip-rule:evenodd;stroke-linejoin:round;stroke-miterlimit:2;">
    <g transform="matrix(1,0,0,1,-8514,-1626)">
        <g id="googledrive-color" transform="matrix(1.01549,0,0,1.01549,1730.95,-25.2437)">
            <rect x="6680" y="1626.05" width="196.949" height="196.949" style="fill:none;"/>
            <g transform="matrix(0.382311,0,0,0.382311,4797.73,1068.48)">
                <g transform="matrix(1,0,0,1,4917,1316)">
                    <path d="M68.21,547.16L88.56,582.3C92.76,589.53 98.77,595.54 106,599.74L178.67,473.98L33.33,473.98C33.33,482.32 35.52,490.52 39.67,497.76L68.21,547.16Z" style="fill:rgb(0,102,218);fill-rule:nonzero;"/>
                </g>
                <g transform="matrix(1,0,0,1,4917,1316)">
                    <path d="M263.98,326.03L191.32,200.27C184.09,204.47 178.08,210.48 173.89,217.71L39.67,450.2C35.52,457.44 33.33,465.63 33.33,473.97L178.66,473.97L263.98,326.03Z" style="fill:rgb(0,172,71);fill-rule:nonzero;"/>
                </g>
                <g transform="matrix(1,0,0,1,4917,1316)">
                    <path d="M263.98,326.03L336.64,200.27C329.43,196.06 321.21,193.88 312.86,193.94L215.1,193.94C206.76,194.01 198.58,196.19 191.32,200.28L263.98,326.03Z" style="fill:rgb(0,131,45);fill-rule:nonzero;"/>
                </g>
                <g transform="matrix(1,0,0,1,4917,1316)">
                    <path d="M349.3,473.97L178.66,473.97L105.99,599.73C113.2,603.94 121.42,606.12 129.76,606.06L398.19,606.06C406.52,605.99 414.71,603.81 421.96,599.72L349.3,473.97Z" style="fill:rgb(38,132,252);fill-rule:nonzero;"/>
                </g>
                <g transform="matrix(1,0,0,1,4917,1316)">
                    <path d="M421.97,599.74C429.2,595.54 435.21,589.53 439.41,582.3L447.86,567.75L488.28,497.74C492.43,490.51 494.61,482.32 494.62,473.98L349.58,473.98L421.97,599.74Z" style="fill:rgb(234,67,53);fill-rule:nonzero;"/>
                </g>
                <g transform="matrix(1,0,0,1,4917,1316)">
                    <path d="M421.18,333.95L354.07,217.7C349.88,210.47 343.87,204.46 336.64,200.26L263.98,326.02L349.3,473.96L494.37,473.96C494.36,465.62 492.18,457.43 488.03,450.19L421.18,333.95Z" style="fill:rgb(255,186,0);fill-rule:nonzero;"/>
                </g>
            </g>
        </g>
    </g>
</svg>
