<svg viewBox="0 0 201 200" xmlns="http://www.w3.org/2000/svg" fill-rule="evenodd" clip-rule="evenodd" stroke-linejoin="round" stroke-miterlimit="2"><path fill="none" d="M.423-.006h200v200h-200z"/><path d="M24.42 157.127l7.9 13.643a18.683 18.683 0 006.771 6.77l28.213-48.824H10.878c0 3.238.85 6.422 2.462 9.233l11.08 19.178z" fill="#0066da" fill-rule="nonzero"/><path d="M100.424 71.277L72.215 22.453a18.643 18.643 0 00-6.767 6.77L13.34 119.485a18.555 18.555 0 00-2.462 9.228H67.3l33.124-57.435z" fill="#00ac47" fill-rule="nonzero"/><path d="M100.424 71.277l28.21-48.824a18.053 18.053 0 00-9.233-2.457H81.447a19.133 19.133 0 00-9.232 2.461l28.21 48.82z" fill="#00832d" fill-rule="nonzero"/><path d="M133.548 128.712H67.3l-28.213 48.825a18.05 18.05 0 009.229 2.457h104.213a19.119 19.119 0 009.228-2.461l-28.209-48.82z" fill="#2684fc" fill-rule="nonzero"/><path d="M161.761 177.54a18.683 18.683 0 006.77-6.77l3.282-5.649 15.692-27.18a18.57 18.57 0 002.461-9.225h-56.309l28.104 48.825z" fill="#ea4335" fill-rule="nonzero"/><path d="M161.454 74.352L135.4 29.22a18.643 18.643 0 00-6.767-6.77l-28.209 48.823 33.124 57.436h56.321a18.595 18.595 0 00-2.461-9.229l-25.954-45.128z" fill="#ffba00" fill-rule="nonzero"/></svg>