<svg viewBox="0 0 201 201" xmlns="http://www.w3.org/2000/svg" fill-rule="evenodd" clip-rule="evenodd" stroke-linejoin="round" stroke-miterlimit="2"><g transform="translate(-6782.588 -1650.583) scale(1.01549)"><path fill="none" d="M6680 1626.05h196.949v196.949H6680z"/><clipPath id="a"><path d="M6680 1626.05h196.949v196.949H6680z"/></clipPath><g clip-path="url(#a)"><path d="M6730.715 1635.516a29.47 29.47 0 0120.836-8.633 29.47 29.47 0 0120.835 8.633l93.726 93.748-20.83 20.83c-11.428 11.425-30.233 11.425-41.66 0l-31.247 31.237-20.831-20.831 52.077-52.078-72.906-72.906zm20.831 166.641l-20.83-20.831a29.471 29.471 0 00-8.633 20.836 29.471 29.471 0 008.632 20.835l20.831-20.84z" fill="#224991" fill-rule="nonzero"/><path d="M6699.469 1729.264a29.471 29.471 0 01-8.633-20.835 29.471 29.471 0 018.633-20.836l20.83 20.831 31.243-31.244 20.828 20.829-31.244 31.24 52.078 52.077a29.471 29.471 0 018.632 20.836 29.471 29.471 0 01-8.632 20.835l-93.735-93.733z" fill="#3c80ff" fill-rule="nonzero"/></g></g></svg>