<svg viewBox="0 0 201 200" xmlns="http://www.w3.org/2000/svg" fill-rule="evenodd" clip-rule="evenodd" stroke-linejoin="round" stroke-miterlimit="2"><path fill="none" d="M.747-.006h200v200h-200z"/><path d="M61.296 99.999c-.002 10.22 8.283 18.508 18.504 18.51 10.221 0 18.509-8.283 18.51-18.505v-.006c.001-10.221-8.283-18.509-18.504-18.51-10.221-.001-18.509 8.283-18.51 18.504V100zm39.447-80c-44.184 0-80 35.817-80 80 0 44.182 35.816 80 80 80 44.182 0 79.999-35.817 79.999-80s-35.817-80-80-80zm-20.72 149.888c-24.056-13.997-40.23-40.05-40.23-69.888 0-29.837 16.174-55.892 40.229-69.888C104.086 44.105 120.27 70.156 120.27 100c0 29.842-16.184 55.893-40.247 69.888z" fill="#fff" fill-rule="nonzero"/></svg>