<svg viewBox="0 0 201 201" xmlns="http://www.w3.org/2000/svg" fill-rule="evenodd" clip-rule="evenodd" stroke-linejoin="round" stroke-miterlimit="2"><path fill="none" d="M.133.655h200v200h-200z"/><path d="M172.831 20.654H88.715c0 20.83 17.141 37.971 37.971 37.971h15.495v14.961c.015 20.952 16.996 37.934 37.947 37.948V27.95a7.297 7.297 0 00-7.297-7.297z" fill="#2684ff" fill-rule="nonzero"/><path d="M1740.98 803.395H666.082c.166 267.745 217.166 484.755 484.918 484.925h198.01v191.8c.34 267.74 217.49 484.6 485.23 484.6V896.661c0-51.503-41.75-93.257-93.26-93.257v-.009z" fill="url(#_Linear1)" fill-rule="nonzero" transform="matrix(.07825 0 0 .07825 -5.028 -.303)"/><path d="M1208.81 1338.68H133.903c0 267.98 217.254 485.23 485.232 485.23h198.631v191.17c.175 267.5 216.804 484.41 484.304 484.92V1431.93c0-51.5-41.75-93.25-93.26-93.25z" fill="url(#_Linear2)" fill-rule="nonzero" transform="matrix(.07825 0 0 .07825 -5.028 -.303)"/><defs><linearGradient id="_Linear1" x1="0" y1="0" x2="1" y2="0" gradientUnits="userSpaceOnUse" gradientTransform="scale(-656.844) rotate(-45.882 -2.827 2.644)"><stop offset="0" stop-color="#0052cc"/><stop offset=".18" stop-color="#0052cc"/><stop offset="1" stop-color="#2684ff"/></linearGradient><linearGradient id="_Linear2" x1="0" y1="0" x2="1" y2="0" gradientUnits="userSpaceOnUse" gradientTransform="rotate(135.802 382.074 937.899) scale(737.506)"><stop offset="0" stop-color="#0052cc"/><stop offset=".18" stop-color="#0052cc"/><stop offset="1" stop-color="#2684ff"/></linearGradient></defs></svg>