<?xml version="1.0" encoding="UTF-8" standalone="no"?>
<!DOCTYPE svg PUBLIC "-//W3C//DTD SVG 1.1//EN" "http://www.w3.org/Graphics/SVG/1.1/DTD/svg11.dtd">
<svg width="100%" height="100%" viewBox="0 0 200 200" version="1.1" xmlns="http://www.w3.org/2000/svg" xmlns:xlink="http://www.w3.org/1999/xlink" xml:space="preserve" xmlns:serif="http://www.serif.com/" style="fill-rule:evenodd;clip-rule:evenodd;stroke-linejoin:round;stroke-miterlimit:2;">
    <g transform="matrix(1,0,0,1,-9685.91,-2695.12)">
        <g id="material_ui-logo">
        </g>
        <g id="colormind-logo">
        </g>
        <g id="synology-logo">
        </g>
        <g id="dimensions-logo">
        </g>
        <g id="dimensions">
        </g>
        <g id="svgator-logo">
        </g>
        <g id="qonto-white" transform="matrix(1.01549,0,0,1.01549,2902.41,1043.87)">
            <rect x="6680" y="1626.05" width="196.949" height="196.949" style="fill:none;"/>
            <g transform="matrix(2.31704,0,0,2.31704,6680,1696.72)">
                <path d="M17.044,22.353C15.454,23.117 13.641,23.545 11.683,23.545C5.06,23.545 0,18.364 0,11.818C0,5 5.06,0 11.683,0C18.49,0 23.55,5 23.55,11.909C23.55,15.072 22.335,17.93 20.294,20.022C21.226,20.317 22.248,20.52 23.366,20.636L22.998,24C20.738,23.752 18.757,23.208 17.044,22.353ZM16.887,18.222C18.686,16.748 19.778,14.456 19.778,11.727C19.778,6.909 16.374,3.273 11.683,3.273C7.083,3.273 3.68,6.909 3.68,11.818C3.68,16.545 7.083,20 11.683,20C12.33,20 12.953,19.934 13.545,19.808C12.031,18.251 10.863,16.262 10.027,13.818L13.339,12.727C14.146,15.122 15.304,16.932 16.887,18.222ZM43.604,23.091L43.604,7.273L46.823,7.273L46.823,9C48.019,7.363 49.675,6.909 50.963,6.909C54.459,6.909 57.678,9.909 57.678,13.818L57.678,23.091L54.183,23.091L54.183,14C54.183,11.727 52.435,10.091 50.411,10.091C48.387,10.091 46.823,11.818 46.823,14L46.823,23.091L43.604,23.091ZM76.537,6.909C81.412,6.909 85,10.636 85,15.273C85,20 81.32,23.454 76.537,23.454C71.753,23.454 68.166,20 68.166,15.273C68.166,10.636 71.845,6.909 76.537,6.909ZM76.537,20.182C79.389,20.182 81.504,18 81.504,15.273C81.504,12.364 79.297,10.273 76.537,10.273C73.961,10.273 71.753,12.364 71.753,15.273C71.753,18 73.869,20.182 76.537,20.182ZM67.614,23.091C63.382,24.364 59.519,22.454 59.519,16.818L59.519,3.182L62.922,3.182L62.922,7.273L67.246,7.273L67.246,10.454L62.922,10.454L62.922,17.363C62.922,20 65.222,20.909 67.614,19.727L67.614,23.091ZM33.301,6.909C38.176,6.909 41.764,10.636 41.764,15.273C41.764,20 38.084,23.454 33.301,23.454C28.517,23.454 24.93,20 24.93,15.273C24.93,10.636 28.609,6.909 33.301,6.909ZM33.301,20.182C36.06,20.182 38.268,18 38.268,15.273C38.268,12.364 36.06,10.273 33.301,10.273C30.633,10.273 28.517,12.364 28.517,15.273C28.517,18 30.633,20.182 33.301,20.182Z" style="fill:white;"/>
            </g>
        </g>
    </g>
</svg>
