<?xml version="1.0" encoding="UTF-8" standalone="no"?>
<!DOCTYPE svg PUBLIC "-//W3C//DTD SVG 1.1//EN" "http://www.w3.org/Graphics/SVG/1.1/DTD/svg11.dtd">
<svg width="100%" height="100%" viewBox="0 0 201 201" version="1.1" xmlns="http://www.w3.org/2000/svg" xmlns:xlink="http://www.w3.org/1999/xlink" xml:space="preserve" xmlns:serif="http://www.serif.com/" style="fill-rule:evenodd;clip-rule:evenodd;stroke-linejoin:round;stroke-miterlimit:2;">
    <g transform="matrix(1,0,0,1,-7374,-2185)">
        <g id="sidecare-color" transform="matrix(1.01549,0,0,1.01549,590.597,534.417)">
            <rect x="6680" y="1626.05" width="196.949" height="196.949" style="fill:none;"/>
            <clipPath id="_clip1">
                <rect x="6680" y="1626.05" width="196.949" height="196.949"/>
            </clipPath>
            <g clip-path="url(#_clip1)">
                <g transform="matrix(0.588933,0,0,0.588933,3589.23,573.284)">
                    <circle cx="5416" cy="1955.5" r="166.5" style="fill:rgb(232,162,59);"/>
                    <g transform="matrix(1.00717,0,0,1.00717,-38.8244,-14.0179)">
                        <circle cx="5416" cy="1955.5" r="139.5" style="fill:rgb(89,65,65);"/>
                        <clipPath id="_clip2">
                            <circle cx="5416" cy="1955.5" r="139.5"/>
                        </clipPath>
                        <g clip-path="url(#_clip2)">
                            <g transform="matrix(0.992883,0,0,0.992883,39.5409,13.9181)">
                                <circle cx="5316.5" cy="1958.5" r="85.5" style="fill:rgb(48,17,17);"/>
                            </g>
                            <g transform="matrix(0.992883,0,0,0.992883,38.548,13.9181)">
                                <path d="M5379.74,1966C5379.74,1966 5400.35,1984 5416,1984C5431.65,1984 5457,1958.5 5457,1958.5L5565,1999C5565,1999 5555.25,2107 5406,2107C5256.75,2107 5262,1990 5262,1990L5379.74,1966Z" style="fill:rgb(48,17,17);"/>
                            </g>
                            <g transform="matrix(0.992883,0,0,0.992883,234.847,13.9181)">
                                <circle cx="5316.5" cy="1958.5" r="85.5" style="fill:rgb(48,17,17);"/>
                            </g>
                        </g>
                    </g>
                    <g transform="matrix(0.88172,0,0,0.899642,640.602,196.251)">
                        <path d="M5554.05,1975.65C5544.28,2043.11 5486.15,2095 5416,2095C5342.01,2095 5277.63,2033.87 5277.55,1964.95C5277.55,1942.83 5295.51,1924.88 5317.63,1924.88C5339.74,1924.88 5357.7,1942.83 5357.7,1964.95L5357.7,1991.07C5357.7,2013.25 5383.82,2031.26 5416,2031.26C5448.18,2031.26 5474.3,2013.25 5474.3,1991.07L5475.35,1964.95C5475.35,1942.83 5493.31,1924.88 5515.43,1924.88C5536.44,1924.88 5553.69,1941.08 5555.37,1961.65C5555.45,1962.74 5555,1972.24 5554.05,1975.65ZM5300.88,1978.22C5300.88,1978.03 5300.87,1977.84 5300.87,1977.65C5300.87,1968.18 5308.56,1960.5 5318.02,1960.5C5327.49,1960.5 5335.17,1968.18 5335.17,1977.65C5335.17,1977.84 5335.17,1978.03 5335.16,1978.22C5340.58,1973.46 5344,1966.47 5344,1958.7C5344,1944.36 5332.36,1932.71 5318.02,1932.71C5303.68,1932.71 5292.04,1944.36 5292.04,1958.7C5292.04,1966.47 5295.46,1973.46 5300.88,1978.22ZM5498.68,1978.22C5498.68,1978.03 5498.67,1977.84 5498.67,1977.65C5498.67,1968.18 5506.36,1960.5 5515.82,1960.5C5525.28,1960.5 5532.97,1968.18 5532.97,1977.65C5532.97,1977.84 5532.97,1978.03 5532.96,1978.22C5538.38,1973.46 5541.8,1966.47 5541.8,1958.7C5541.8,1944.36 5530.16,1932.71 5515.82,1932.71C5501.48,1932.71 5489.84,1944.36 5489.84,1958.7C5489.84,1966.47 5493.26,1973.46 5498.68,1978.22Z" style="fill:rgb(255,231,191);"/>
                    </g>
                    <g transform="matrix(0.259949,0,0,0.150538,4008.11,1692.62)">
                        <path d="M5416,1746.25C5496.78,1746.25 5555.5,1878.51 5555.5,1955.5C5555.5,2032.49 5492.99,2095 5416,2095C5339.01,2095 5276.5,2032.49 5276.5,1955.5C5276.5,1878.51 5346.76,1746.25 5416,1746.25Z" style="fill:rgb(232,162,59);"/>
                    </g>
                </g>
            </g>
        </g>
    </g>
</svg>
