<svg viewBox="0 0 201 201" xmlns="http://www.w3.org/2000/svg" fill-rule="evenodd" clip-rule="evenodd" stroke-linejoin="round" stroke-miterlimit="2"><g transform="translate(-6783.403 -1650.583) scale(1.01549)"><path fill="none" d="M6680 1626.05h196.949v196.949H6680z"/><clipPath id="a"><path d="M6680 1626.05h196.949v196.949H6680z"/></clipPath><g clip-path="url(#a)"><g transform="matrix(.58893 0 0 .58893 3589.23 573.284)"><circle cx="5416" cy="1955.5" r="166.5" fill="#e8a23b"/><g transform="translate(-38.824 -14.018) scale(1.00717)"><circle cx="5416" cy="1955.5" r="139.5" fill="#594141"/><clipPath id="b"><circle cx="5416" cy="1955.5" r="139.5"/></clipPath><g clip-path="url(#b)"><circle cx="5316.5" cy="1958.5" r="85.5" fill="#301111" transform="matrix(.99288 0 0 .99288 39.54 13.918)"/><path d="M5380 1965.926s20.464 17.872 36.002 17.872c15.539 0 40.709-25.319 40.709-25.319l107.23 40.212s-9.68 107.232-157.868 107.232c-148.187 0-142.975-116.168-142.975-116.168L5380 1965.926z" fill="#301111"/><circle cx="5316.5" cy="1958.5" r="85.5" fill="#301111" transform="matrix(.99288 0 0 .99288 234.847 13.918)"/></g></g><path d="M5537.719 1973.629c-8.614 60.69-59.869 107.372-121.721 107.372-65.239 0-122.004-54.995-122.075-116.998 0-19.9 15.836-36.05 35.34-36.05 19.495 0 35.33 16.15 35.33 36.05v23.498c0 19.954 23.03 36.157 51.405 36.157 28.373 0 51.404-16.203 51.404-36.157l.926-23.498c0-19.9 15.835-36.05 35.339-36.05 18.525 0 33.735 14.575 35.216 33.08.07.981-.326 9.528-1.164 12.596zm-223.225 2.312c0-.171-.009-.342-.009-.513 0-8.52 6.78-15.429 15.122-15.429 8.35 0 15.121 6.91 15.121 15.429 0 .17 0 .342-.009.513 4.78-4.282 7.795-10.571 7.795-17.561 0-12.901-10.264-23.382-22.907-23.382-12.644 0-22.907 10.48-22.907 23.382 0 6.99 3.015 13.279 7.794 17.56zm174.404 0c0-.171-.009-.342-.009-.513 0-8.52 6.78-15.429 15.122-15.429 8.34 0 15.121 6.91 15.121 15.429 0 .17 0 .342-.009.513 4.78-4.282 7.795-10.571 7.795-17.561 0-12.901-10.263-23.382-22.907-23.382s-22.907 10.48-22.907 23.382c0 6.99 3.015 13.279 7.794 17.56z" fill="#ffe7bf"/><path d="M5415.994 1955.497c20.998 0 36.263 19.91 36.263 31.5s-16.25 21-36.263 21c-20.014 0-36.263-9.41-36.263-21s18.264-31.5 36.263-31.5z" fill="#e8a23b"/></g></g></g></svg>