<svg viewBox="0 0 201 200" xmlns="http://www.w3.org/2000/svg" fill-rule="evenodd" clip-rule="evenodd" stroke-linejoin="round" stroke-miterlimit="2"><path fill="none" d="M.003-.006h200v200h-200z"/><path d="M179.99 50.872l-56.65-32.653s-8.974-5.247-23.293-5.247c-14.91 0-23.55 5.407-23.55 5.407L24.024 48.41l79.832 45.882v92.727l52.538-29.997s9.391-5.184 16.527-17.502c6.287-10.847 7.07-21.342 7.07-21.342V50.872zM94.56 65.974s11.71-2.16 21.614 3.552c9.903 5.711 15.742 9.07 15.742 9.07s.016 7.952.016 19.839c0 9.519-8.063 19.39-8.063 19.39l.016-34.925L94.56 65.974zm46.427 76.6l-17.102 9.807v-9.199l13.31-7.615c12.671-9.135 14.767-22.606 14.767-27.277l-.048-41.372-36.3-20.894s-5.52-3.615-15.439-3.615-15.326 3.343-15.326 3.343l-12.75 7.328-8.048-4.656 17.614-10.063s6.895-3.823 18.446-3.823c10.607 0 18.862 4.143 18.862 4.143l40.988 23.678-.048 45.147c.288 6.943-2.944 23.901-18.926 35.068z" fill="#005f9e" fill-rule="nonzero"/><path d="M19.992 78.437l55.962 32.109-.048 9.567-31.837-18.254-20.03 11.39 51.835 29.87.032 9.214-55.53-31.948c.144 3.743 3.535 15.278 10.03 24.205 6.592 9.04 14.111 12.879 14.111 12.879l51.323 29.549v-88.12l-75.8-43.53-.048 23.069z" fill="#005f9e" fill-rule="nonzero"/></svg>