<svg viewBox="0 0 200 200" xmlns="http://www.w3.org/2000/svg" fill-rule="evenodd" clip-rule="evenodd" stroke-linejoin="round" stroke-miterlimit="2"><g transform="translate(-6783.5 -1651.243) scale(1.01549)"><path fill="none" d="M6680 1626.05h196.949v196.949H6680z"/><clipPath id="a"><path d="M6680 1626.05h196.949v196.949H6680z"/></clipPath><g clip-path="url(#a)"><path d="M193.848 183.185c20.175-19.201 52.11-18.433 71.296 1.745 19.186 20.178 18.416 52.155-1.734 71.356L128.192 385.104c-20.15 19.2-52.111 18.398-71.297-1.746-19.186-20.178-18.414-52.155 1.76-71.355l135.193-128.818z" fill="url(#_Linear2)" transform="matrix(.44276 0 0 .44276 6660.963 1607.416)"/><path d="M339.116 274.127c17.764 21.469 14.752 53.308-6.675 71.077-21.452 17.769-53.268 14.766-71.008-6.704l-71.657-86.577c-17.74-21.469-14.752-53.307 6.675-71.042 21.452-17.769 53.268-14.801 71.008 6.669l71.657 86.577z" fill="url(#_Linear3)" transform="matrix(.44276 0 0 .44276 6660.963 1607.416)"/><path d="M403.304 143.249c20.511-18.817 52.447-17.421 71.271 3.106 18.8 20.527 17.427 52.469-3.084 71.285L334.369 343.526c-20.511 18.817-52.448 17.456-71.248-3.071-18.825-20.527-17.45-52.506 3.062-71.323l137.121-125.883z" fill="url(#_Linear4)" transform="matrix(.44276 0 0 .44276 6660.963 1607.416)"/></g></g><defs><linearGradient id="_Linear2" x1="0" y1="0" x2="1" y2="0" gradientUnits="userSpaceOnUse" gradientTransform="rotate(-44.979 467.663 61.461) scale(137.4395)"><stop offset="0" stop-color="#0065ea"/><stop offset="1" stop-color="#00a1ec"/></linearGradient><linearGradient id="_Linear3" x1="0" y1="0" x2="1" y2="0" gradientUnits="userSpaceOnUse" gradientTransform="scale(61.424) rotate(44.958 -2.462 6.286)"><stop offset="0" stop-color="#00a1ec"/><stop offset="1" stop-color="#00c6ee"/></linearGradient><linearGradient id="_Linear4" x1="0" y1="0" x2="1" y2="0" gradientUnits="userSpaceOnUse" gradientTransform="rotate(-44.959 528.732 -216.459) scale(183.666)"><stop offset="0" stop-color="#00c6ee"/><stop offset="1" stop-color="#00fff0"/></linearGradient></defs></svg>