<svg viewBox="0 0 201 201" xmlns="http://www.w3.org/2000/svg" fill-rule="evenodd" clip-rule="evenodd" stroke-linejoin="round" stroke-miterlimit="2"><g transform="translate(-6782.86 -1650.583) scale(1.01549)"><path fill="none" d="M6680 1626.05h196.949v196.949H6680z"/><clipPath id="a"><path d="M6680 1626.05h196.949v196.949H6680z"/></clipPath><g clip-path="url(#a)"><path d="M6683.958 1805.365l-1.399-.158-.878-.39-.633-.501-.502-.634-.39-.877-.158-1.4v-.884l95.775-166.1h5.135l95.332 165.334-.521-.686.917 1.294.31 1.22-.131 1.228-.588 1.135-.6.608-.806.475-1.01.277a7.73 7.73 0 01-1.089.06h-188.764zm37.007-24.42h116.07L6779 1680.148l-58.035 100.797z" fill="#428bca"/></g></g></svg>