<?xml version="1.0" encoding="UTF-8" standalone="no"?>
<!DOCTYPE svg PUBLIC "-//W3C//DTD SVG 1.1//EN" "http://www.w3.org/Graphics/SVG/1.1/DTD/svg11.dtd">
<svg width="100%" height="100%" viewBox="0 0 200 200" version="1.1" xmlns="http://www.w3.org/2000/svg" xmlns:xlink="http://www.w3.org/1999/xlink" xml:space="preserve" xmlns:serif="http://www.serif.com/" style="fill-rule:evenodd;clip-rule:evenodd;stroke-linejoin:round;stroke-miterlimit:2;">
    <g transform="matrix(1,0,0,1,-8339.28,-2454.68)">
        <g id="material_ui-logo">
        </g>
        <g id="colormind-logo">
        </g>
        <g id="synology-logo">
        </g>
        <g id="dimensions-logo">
        </g>
        <g id="dimensions">
        </g>
        <g id="svgator-logo">
        </g>
        <g id="vine-color" transform="matrix(1.01549,0,0,1.01549,1555.79,803.434)">
            <rect x="6680" y="1626.05" width="196.949" height="196.949" style="fill:none;"/>
            <clipPath id="_clip1">
                <rect x="6680" y="1626.05" width="196.949" height="196.949"/>
            </clipPath>
            <g clip-path="url(#_clip1)">
                <g transform="matrix(1.06749,0,0,1.06749,-457.733,-116.387)">
                    <g transform="matrix(0.265724,0,0,0.265724,4562.49,-205.472)">
                        <path d="M8300,7280C8300,7280 8307.85,7356.26 8355,7425C8396.36,7485.29 8453.64,7512.9 8467.09,7518.78C8468.97,7519.62 8470,7520 8470,7520C8470,7520 8468.98,7519.6 8467.09,7518.78C8452.77,7512.37 8388.91,7479.06 8350,7380C8331.08,7331.84 8323.34,7284.92 8320.91,7267.31C8375.44,7237.8 8520.46,7183.26 8560,7410C8585.8,7557.97 8660,7570 8660,7570C8660,7570 8457,7645 8360,7584C8163.72,7460.56 8270,7300 8270,7300C8270,7300 8240.7,7100.32 8372,7039C8503.3,6977.68 8561.44,7095 8561.44,7095C8561.44,7095 8430,6946 8320,7110C8283.11,7165 8300,7280 8300,7280Z" style="fill:rgb(101,156,67);"/>
                    </g>
                    <g transform="matrix(0.265724,0,0,0.265724,4562.49,-205.472)">
                        <path d="M8422,7605.12C8422,7605.12 8526.38,7606.94 8589,7537C8651.62,7467.06 8677,7422 8677,7422C8677,7422 8707.08,7553.32 8655,7585C8602.92,7616.68 8460.92,7612.41 8422,7605.12Z" style="fill:rgb(44,103,44);"/>
                    </g>
                    <g transform="matrix(0.265724,0,0,0.265724,4562.49,-205.472)">
                        <path d="M8450.64,6916C8450.64,6916 8549.91,7015.78 8303.15,7151.25C8014,7310 8154,7440 8154,7440C8154,7440 8042,7322 8316,7171C8585.88,7022.27 8450.64,6916 8450.64,6916" style="fill:rgb(44,103,44);"/>
                    </g>
                    <g transform="matrix(0.265724,0,0,0.265724,4562.49,-205.472)">
                        <path d="M8172,7152C8172,7152 8177,7185 8198,7196C8222.73,7208.95 8230,7208 8230,7208L8247,7194C8247,7194 8214,7193 8197,7181C8172.73,7163.87 8172,7152 8172,7152Z" style="fill:rgb(44,103,44);"/>
                    </g>
                    <g transform="matrix(0.265724,0,0,0.265724,4562.49,-205.472)">
                        <path d="M8220,7208.02C8220,7208.02 8190.47,7222.15 8144,7221C8097.53,7219.85 8088,7217 8088,7217C8088,7217 8134.76,7229.76 8170,7229C8205.24,7228.24 8213,7227 8213,7227L8220,7208.02Z" style="fill:rgb(44,104,44);"/>
                    </g>
                    <g transform="matrix(0.265724,0,0,0.265724,4562.49,-205.472)">
                        <path d="M8154,7225C8154,7225 8150.67,7251.33 8095,7250C8053,7249 8015,7208 8001,7187C7987,7166 7996,7146 7996,7146C7996,7146 7995.75,7162.09 8022,7162C8048.25,7161.91 8080.54,7138.11 8120.12,7160C8159.7,7181.89 8155.36,7211.37 8154,7225Z" style="fill:rgb(44,104,44);"/>
                    </g>
                    <g transform="matrix(0.115712,0.122069,-0.121787,0.115445,6670.03,-129.306)">
                        <path d="M8154,7225C8154,7225 8150.67,7251.33 8095,7250C8053,7249 8015,7208 8001,7187C7987,7166 7996,7146 7996,7146C7996,7146 7995.75,7162.09 8022,7162C8048.25,7161.91 8080.54,7138.11 8120.12,7160C8159.7,7181.89 8155.36,7211.37 8154,7225Z" style="fill:rgb(44,104,44);"/>
                    </g>
                </g>
            </g>
        </g>
    </g>
</svg>
