<svg viewBox="0 0 200 200" xmlns="http://www.w3.org/2000/svg" fill-rule="evenodd" clip-rule="evenodd" stroke-linejoin="round" stroke-miterlimit="2"><g transform="translate(-6783.49 -1651.243) scale(1.01549)"><path fill="none" d="M6680 1626.05h196.949v196.949H6680z"/><clipPath id="a"><path d="M6680 1626.05h196.949v196.949H6680z"/></clipPath><g clip-path="url(#a)"><path d="M6727.378 1795.104c-9.823-7.639-9.339-10.486-8.864-22.422.48-11.935-.375-18.062-5.736-30.243-5.36-12.181-16.686-21.9-16.686-50.58 0-39.63 37.512-67.75 76.652-65.701 39.139 2.049 51.414 16.295 60.487 25.55 9.073 9.256 12.473 25.035 11.993 35.98-.48 10.945-2.086 13.036 2.086 19.814 6.836 11.107 13.557 12.515 13.557 16.686 0 6.445-7.091 6.247-9.907 6.78-2.816.531-2.592 2.393-3.129 5.214-.537 2.82-.297 6.523.522 8.864.818 2.341.876 2.367-1.043 3.65-1.914 1.283-2.331 2.816-1.043 4.172 1.288 1.355 2.127 2.169.521 4.171-1.606 2.003-2.748 1.267-1.564 14.6 1.184 13.334-10.335 6.967-25.55 15.122-15.216 8.156-30.474 20.357-37.544 31.287-5.736 8.864-14.6 3.128-14.6 3.128l-40.152-26.072zm5.632-115.608c6.257.954 11.055 6.361 11.055 12.885 0 6.523-4.798 11.93-11.055 12.884.75 2.373 1.7 4.662 2.837 6.837 5.094-3.75 12.31-3.317 16.92 1.298 4.615 4.61 5.048 11.826 1.299 16.926a42.294 42.294 0 006.836 2.831c.954-6.257 6.361-11.054 12.885-11.054 6.523 0 11.93 4.797 12.884 11.054a42.294 42.294 0 006.837-2.831c-3.75-5.1-3.317-12.317 1.298-16.926 4.61-4.615 11.826-5.048 16.92-1.298a42.314 42.314 0 002.837-6.837c-6.257-.954-11.054-6.361-11.054-12.884 0-6.524 4.797-11.93 11.054-12.885a42.314 42.314 0 00-2.836-6.836c-5.095 3.749-12.312 3.316-16.921-1.293-4.615-4.615-5.048-11.832-1.298-16.926a42.314 42.314 0 00-6.837-2.837c-.954 6.257-6.361 11.055-12.884 11.055-6.524 0-11.93-4.798-12.885-11.055-2.373.75-4.662 1.7-6.836 2.837 3.749 5.094 3.316 12.31-1.299 16.926-4.61 4.61-11.826 5.042-16.92 1.293a42.314 42.314 0 00-2.837 6.836zm40.777 1.413c6.33 0 11.471 5.141 11.471 11.472 0 6.33-5.141 11.471-11.471 11.471s-11.472-5.141-11.472-11.471 5.141-11.472 11.472-11.472z" fill="#8a8a8a"/></g></g></svg>