<?xml version="1.0" encoding="UTF-8" standalone="no"?>
<!DOCTYPE svg PUBLIC "-//W3C//DTD SVG 1.1//EN" "http://www.w3.org/Graphics/SVG/1.1/DTD/svg11.dtd">
<svg width="100%" height="100%" viewBox="0 0 200 200" version="1.1" xmlns="http://www.w3.org/2000/svg" xmlns:xlink="http://www.w3.org/1999/xlink" xml:space="preserve" xmlns:serif="http://www.serif.com/" style="fill-rule:evenodd;clip-rule:evenodd;stroke-linejoin:round;stroke-miterlimit:2;">
    <g transform="matrix(1,0,0,1,-8525.43,-2185.66)">
        <g id="material_ui-logo">
        </g>
        <g id="colormind-logo">
        </g>
        <g id="synology-logo">
        </g>
        <g id="dimensions-logo">
        </g>
        <g id="dimensions">
        </g>
        <g id="svgator-logo">
        </g>
        <g id="webaim-color" transform="matrix(1.01549,0,0,1.01549,1741.94,534.417)">
            <rect x="6680" y="1626.05" width="196.949" height="196.949" style="fill:none;"/>
            <clipPath id="_clip1">
                <rect x="6680" y="1626.05" width="196.949" height="196.949"/>
            </clipPath>
            <g clip-path="url(#_clip1)">
                <g transform="matrix(0.52144,0,0,0.52144,2103.77,-409.544)">
                    <path d="M8867,4228C8848.16,4213.35 8849.09,4207.89 8850,4185C8850.92,4162.11 8849.28,4150.36 8839,4127C8828.72,4103.64 8807,4085 8807,4030C8807,3954 8878.94,3900.07 8954,3904C9029.06,3907.93 9052.6,3935.25 9070,3953C9087.4,3970.75 9093.92,4001.01 9093,4022C9092.08,4042.99 9089,4047 9097,4060C9110.11,4081.3 9123,4084 9123,4092C9123,4104.36 9109.4,4103.98 9104,4105C9098.6,4106.02 9099.03,4109.59 9098,4115C9096.97,4120.41 9097.43,4127.51 9099,4132C9100.57,4136.49 9100.68,4136.54 9097,4139C9093.33,4141.46 9092.53,4144.4 9095,4147C9097.47,4149.6 9099.08,4151.16 9096,4155C9092.92,4158.84 9090.73,4157.43 9093,4183C9095.27,4208.57 9073.18,4196.36 9044,4212C9014.82,4227.64 8985.56,4251.04 8972,4272C8961,4289 8944,4278 8944,4278L8867,4228ZM8877.8,4006.29C8889.8,4008.12 8899,4018.49 8899,4031C8899,4043.51 8889.8,4053.88 8877.8,4055.71C8879.24,4060.26 8881.06,4064.65 8883.24,4068.82C8893.01,4061.63 8906.85,4062.46 8915.69,4071.31C8924.54,4080.15 8925.37,4093.99 8918.18,4103.77C8922.35,4105.94 8926.74,4107.77 8931.29,4109.2C8933.12,4097.2 8943.49,4088 8956,4088C8968.51,4088 8978.88,4097.2 8980.71,4109.2C8985.26,4107.77 8989.65,4105.94 8993.82,4103.77C8986.63,4093.99 8987.46,4080.15 8996.31,4071.31C9005.15,4062.46 9018.99,4061.63 9028.76,4068.82C9030.94,4064.65 9032.76,4060.26 9034.2,4055.71C9022.2,4053.88 9013,4043.51 9013,4031C9013,4018.49 9022.2,4008.12 9034.2,4006.29C9032.76,4001.74 9030.94,3997.35 9028.76,3993.18C9018.99,4000.37 9005.15,3999.54 8996.31,3990.7C8987.46,3981.85 8986.63,3968.01 8993.82,3958.24C8989.65,3956.06 8985.26,3954.24 8980.71,3952.8C8978.88,3964.8 8968.51,3974 8956,3974C8943.49,3974 8933.12,3964.8 8931.29,3952.8C8926.74,3954.24 8922.35,3956.06 8918.18,3958.24C8925.37,3968.01 8924.54,3981.85 8915.69,3990.7C8906.85,3999.54 8893.01,4000.37 8883.24,3993.18C8881.06,3997.35 8879.24,4001.74 8877.8,4006.29ZM8956,4009C8968.14,4009 8978,4018.86 8978,4031C8978,4043.14 8968.14,4053 8956,4053C8943.86,4053 8934,4043.14 8934,4031C8934,4018.86 8943.86,4009 8956,4009Z" style="fill:rgb(138,138,138);"/>
                </g>
            </g>
        </g>
    </g>
</svg>
