<?xml version="1.0" encoding="UTF-8" standalone="no"?>
<!DOCTYPE svg PUBLIC "-//W3C//DTD SVG 1.1//EN" "http://www.w3.org/Graphics/SVG/1.1/DTD/svg11.dtd">
<svg width="100%" height="100%" viewBox="0 0 201 201" version="1.1" xmlns="http://www.w3.org/2000/svg" xmlns:xlink="http://www.w3.org/1999/xlink" xml:space="preserve" xmlns:serif="http://www.serif.com/" style="fill-rule:evenodd;clip-rule:evenodd;stroke-linejoin:round;stroke-miterlimit:2;">
    <g transform="matrix(1,0,0,1,-6906,-1892)">
        <g id="dashicons-white" transform="matrix(1.01549,0,0,1.01549,123.206,240.814)">
            <rect x="6680" y="1626.05" width="196.949" height="196.949" style="fill:none;"/>
            <g id="wpadmincolors" transform="matrix(3.76857,0,0,3.76857,6668.25,1625.92)">
                <path d="M27.7,7.9C28.2,8.1 28.4,8.5 28.2,9C27.94,9.576 27.604,10.114 27.2,10.6C26.3,11.9 25.9,12.9 25.7,13.6C25.5,14.7 26,15.7 27.3,16.5C28.2,17.1 29.4,16.8 31,15.6C32,15 33.5,13.7 35.6,11.9C36.766,10.719 38.038,9.648 39.4,8.7C40.88,7.84 42.638,7.589 44.3,8C46.4,8.4 48,9.8 49,12.1C50,14.4 50.4,17.5 50,21.3C49.6,25.4 48.6,29.3 46.8,32.9C44.963,36.684 42.171,39.924 38.7,42.3C35.332,44.415 31.473,45.621 27.5,45.8C23.6,45.9 20,45 16.7,43.1C10.459,39.501 7.219,32.25 8.7,25.2C9.3,21.9 10.7,18.7 12.8,15.8C14.9,12.9 17.3,10.7 19.9,9.3C22.8,7.5 25.3,7.1 27.7,7.9ZM31,25.5C31.41,26.598 32.54,27.268 33.7,27.1C35,27.1 36.4,26.6 37.8,25.7C39.3,24.8 40.3,23.7 40.9,22.4C41.7,20.8 41.8,19.4 41.2,17.9C40.8,16.9 40,16.5 38.8,16.7C37.6,16.9 36.2,17.5 34.8,18.6C33.51,19.492 32.392,20.61 31.5,21.9C30.7,23.3 30.5,24.5 31,25.5Z" style="fill:white;fill-rule:nonzero;"/>
            </g>
        </g>
    </g>
</svg>
