<svg viewBox="0 0 200 201" xmlns="http://www.w3.org/2000/svg" fill-rule="evenodd" clip-rule="evenodd" stroke-linejoin="round" stroke-miterlimit="2"><path fill="none" d="M-.02.172h200v200h-200z"/><path d="M94.055 30.272c1.913.766 2.678 2.297 1.913 4.21a26.865 26.865 0 01-3.827 6.123c-3.444 4.975-4.975 8.802-5.74 11.481-.766 4.21 1.148 8.037 6.123 11.098 3.444 2.296 8.036 1.148 14.16-3.444 3.826-2.296 9.567-7.271 17.603-14.16a103.62 103.62 0 0114.543-12.246 25.263 25.263 0 0118.752-2.679c8.036 1.53 14.16 6.889 17.987 15.69 3.826 8.803 5.357 20.666 3.826 35.208-1.53 15.69-5.357 30.616-12.246 44.393a92.608 92.608 0 01-30.998 35.973 88.05 88.05 0 01-42.862 13.395c-14.925.382-28.702-3.062-41.33-10.333-23.885-13.773-36.284-41.523-30.616-68.502 2.296-12.63 7.654-24.876 15.69-35.974C45.07 49.407 54.254 40.988 64.204 35.63c11.099-6.888 20.666-8.42 29.85-5.358zm12.628 67.355c1.57 4.202 5.894 6.766 10.333 6.123 4.975 0 10.333-1.914 15.69-5.358 5.741-3.444 9.568-7.654 11.864-12.629 3.062-6.123 3.444-11.48 1.148-17.221-1.53-3.827-4.592-5.358-9.184-4.593-4.593.766-9.95 3.062-15.308 7.272a49.766 49.766 0 00-12.629 12.629c-3.062 5.357-3.827 9.95-1.914 13.777z" fill="#000e1c" fill-rule="nonzero"/></svg>