<svg viewBox="0 0 201 200" xmlns="http://www.w3.org/2000/svg" fill-rule="evenodd" clip-rule="evenodd" stroke-linejoin="round" stroke-miterlimit="2"><path fill="none" d="M.083-.006h200v200h-200z"/><path d="M161.521 91.602l-.004.004c.777 0 1.062.522.627 1.157l-43.34 63.713c-.431.635-.787 1.786-.787 2.55v38.248c0 .765-.637 1.393-1.413 1.393H83.748c-.776 0-1.414-.628-1.414-1.393v-38.247c0-.765-.352-1.916-.786-2.55l-43.33-63.714c-.434-.638-.15-1.157.627-1.157h36.747c.776 0 1.74.54 2.14 1.196l21.687 35.676c.402.653 1.058.656 1.46 0l21.92-35.683c.402-.656 1.37-1.193 2.146-1.193h36.576zM97.67 36.48c-20.713-13.073-3.475-29.117 2.367-35.161 5.839 6.044 23.077 22.088 2.36 35.16-1.053.657-1.872.948-2.36.948-.487 0-1.413-.425-2.367-.947zm-21.787 47.69v-.004c-26.64.491-20.901-24.174-19.324-33.08 8.95 1.989 34.269 6.233 23.582 30.281-.548 1.218-1.108 1.961-1.55 2.252-.437.292-1.53.456-2.708.55zm-33.939-5.252C18.632 91.622 12.003 67.17 9.169 58.572c8.854-2.367 33.25-10.274 35.212 15.908.093 1.326-.05 2.245-.302 2.704-.253.46-1.14 1.105-2.136 1.733zm4.229 43.9h-.004c-11.082 23.87-31.165 8.092-38.63 2.837 5.692-7.09 20.541-27.735 37.915-7.833.872 1.014 1.313 1.831 1.388 2.35.075.516-.246 1.558-.67 2.645zm53.861-79.703c4.571 5.079 18.057 18.566 1.848 29.555-.826.551-1.463.796-1.848.796-.384 0-1.107-.357-1.854-.796-16.206-10.99-2.717-24.473 1.854-29.555zm-44.62 90.89h-.004c.26.179.577.757.876 1.4 5.74 14.96-9.843 17.846-15.368 19.172-.67-5.563-3.372-20.955 12.862-20.888.822.007 1.374.137 1.634.316zm42.766-26.356c-16.206-10.99-2.717-24.473 1.854-29.556 4.571 5.08 18.057 18.566 1.848 29.556-.826.55-1.463.796-1.848.796-.384 0-1.107-.358-1.854-.796zm-68.387-8.19h.004C17.236 114.38 4.81 99.935.083 94.993c5.547-4.03 20.389-16.058 30.044.835.48.859.673 1.508.637 1.883-.036.375-.463 1.052-.972 1.747zm16.706-46.516h-.003c-19.669.086-16.401-18.573-15.59-25.315 6.693 1.603 25.58 5.097 18.63 23.235-.36.916-.744 1.473-1.057 1.69-.313.218-1.112.33-1.98.39zm26.599-5.833c-21.418-5.142-12.75-24.56-10.015-31.678 6.843 3.526 26.423 12.354 13.891 30.226-.64.901-1.21 1.407-1.612 1.557-.402.15-1.307.06-2.264-.105zm48.472 36.512v.003c-.441-.291-1-1.038-1.549-2.252-10.687-24.049 14.632-28.296 23.583-30.282 1.573 8.907 7.312 33.572-19.325 33.081-1.178-.098-2.267-.26-2.709-.55zm34.22-9.143c1.962-26.181 26.358-18.271 35.212-15.907-2.83 8.597-9.459 33.046-32.774 20.345-.996-.625-1.883-1.274-2.135-1.733-.253-.46-.395-1.38-.303-2.705zm-1.089 43.343c17.377-19.902 32.223.744 37.915 7.833-7.465 5.255-27.548 21.032-38.63-2.838-.424-1.087-.747-2.129-.673-2.644.075-.516.516-1.337 1.388-2.35zm-8.325 15.861h.003c16.23-.064 13.528 15.329 12.86 20.888-5.526-1.325-21.105-4.212-15.37-19.173.3-.645.616-1.224.876-1.4.26-.174.81-.307 1.63-.315zm23.66-37.85h.005c9.654-16.89 24.496-4.863 30.043-.836-4.728 4.943-17.153 19.384-29.713 4.465-.512-.694-.936-1.371-.971-1.746-.036-.376.153-1.025.637-1.884zm-18.352-43.28h.003c-.317-.213-.701-.774-1.057-1.69-6.953-18.134 11.937-21.632 18.63-23.235.811 6.742 4.08 25.403-15.594 25.315-.868-.063-1.67-.175-1.982-.39zM124.8 47.215c-.402-.15-.971-.656-1.612-1.557-12.528-17.872 7.052-26.7 13.891-30.226 2.734 7.114 11.403 26.536-10.014 31.678-.962.165-1.862.256-2.265.105z" fill="#3b5eda"/></svg>