<?xml version="1.0" encoding="UTF-8" standalone="no"?>
<!DOCTYPE svg PUBLIC "-//W3C//DTD SVG 1.1//EN" "http://www.w3.org/Graphics/SVG/1.1/DTD/svg11.dtd">
<svg width="100%" height="100%" viewBox="0 0 201 200" version="1.1" xmlns="http://www.w3.org/2000/svg" xmlns:xlink="http://www.w3.org/1999/xlink" xml:space="preserve" xmlns:serif="http://www.serif.com/" style="fill-rule:evenodd;clip-rule:evenodd;stroke-linejoin:round;stroke-miterlimit:2;">
    <g transform="matrix(1,0,0,1,-8065,-1626)">
        <g id="ynab-color" transform="matrix(1.01549,0,0,1.01549,1281.61,-25.2437)">
            <rect x="6680" y="1626.05" width="196.949" height="196.949" style="fill:none;"/>
            <g transform="matrix(0.342256,0,0,0.342256,6680,1627.16)">
                <path d="M464.493,260.334L464.482,260.344C466.715,260.344 467.535,261.848 466.285,263.675L341.586,446.992C340.346,448.819 339.322,452.129 339.322,454.33L339.322,564.377C339.322,566.577 337.488,568.383 335.255,568.383L240.722,568.383C238.489,568.383 236.655,566.577 236.655,564.377L236.655,454.33C236.655,452.129 235.641,448.819 234.392,446.992L109.723,263.675C108.473,261.838 109.293,260.344 111.526,260.344L217.255,260.344C219.488,260.344 222.264,261.898 223.411,263.786L285.812,366.435C286.969,368.313 288.854,368.323 290.011,366.435L353.078,263.765C354.236,261.878 357.022,260.334 359.255,260.334L464.493,260.334ZM280.775,101.732C221.181,64.118 270.778,17.956 287.587,0.566C304.386,17.956 353.983,64.118 294.379,101.732C291.347,103.62 288.99,104.457 287.587,104.457C286.184,104.457 283.521,103.236 280.775,101.732ZM218.089,238.947L218.089,238.937C141.44,240.35 157.952,169.381 162.49,143.756C188.241,149.479 261.09,161.69 230.34,230.884C228.763,234.386 227.154,236.525 225.884,237.363C224.624,238.201 221.48,238.675 218.089,238.947ZM120.44,223.836C53.368,260.39 34.295,190.037 26.142,165.3C51.616,158.488 121.812,135.739 127.456,211.069C127.722,214.884 127.313,217.528 126.585,218.85C125.858,220.172 123.308,222.029 120.44,223.836ZM132.607,350.144L132.596,350.144C100.71,418.823 42.929,373.428 21.449,358.309C37.827,337.912 80.551,278.509 130.538,335.773C133.047,338.69 134.317,341.041 134.532,342.535C134.747,344.018 133.826,347.016 132.607,350.144ZM287.578,120.822C300.73,135.436 339.532,174.241 292.895,205.86C290.518,207.445 288.684,208.151 287.578,208.151C286.472,208.151 284.393,207.122 282.242,205.86C235.615,174.241 274.426,135.446 287.578,120.822ZM159.196,382.333L159.186,382.333C159.934,382.848 160.846,384.513 161.706,386.36C178.218,429.404 133.384,437.71 117.487,441.525C115.561,425.518 107.786,381.233 154.495,381.425C156.861,381.445 158.448,381.818 159.196,382.333ZM282.242,306.502C235.615,274.882 274.426,236.087 287.578,221.463C300.73,236.077 339.531,274.882 292.894,306.502C290.518,308.086 288.684,308.793 287.578,308.793C286.472,308.793 284.393,307.763 282.242,306.502ZM85.479,282.937L85.489,282.937C49.352,325.87 13.603,284.31 0,270.09C15.959,258.494 58.662,223.887 86.442,272.492C87.824,274.964 88.378,276.831 88.275,277.911C88.173,278.991 86.944,280.939 85.479,282.937ZM133.547,149.101L133.537,149.101C76.945,149.347 86.347,95.661 88.682,76.265C107.939,80.877 162.279,90.929 142.284,143.116C141.25,145.751 140.143,147.355 139.242,147.981C138.342,148.606 136.042,148.929 133.547,149.101ZM210.076,132.318C148.453,117.522 173.395,61.651 181.262,41.174C200.949,51.317 257.286,76.719 221.23,128.14C219.387,130.733 217.748,132.187 216.591,132.621C215.433,133.054 212.831,132.792 210.076,132.318ZM349.542,237.37L349.542,237.38C348.272,236.542 346.664,234.393 345.086,230.901C314.336,161.707 387.185,149.486 412.937,143.773C417.464,169.398 433.976,240.367 357.337,238.954C353.946,238.672 350.812,238.207 349.542,237.37ZM448,211.065C453.644,135.735 523.839,158.494 549.314,165.296C541.171,190.032 522.098,260.376 455.016,223.832C452.148,222.035 449.598,220.168 448.871,218.846C448.143,217.524 447.734,214.879 448,211.065ZM444.868,335.773C494.865,278.509 537.579,337.912 553.957,358.309C532.478,373.428 474.696,418.823 442.809,350.144C441.59,347.016 440.659,344.018 440.874,342.535C441.089,341.051 442.359,338.69 444.868,335.773ZM420.913,381.408L420.923,381.408C467.62,381.222 459.847,425.512 457.921,441.508C442.024,437.693 397.2,429.387 413.702,386.343C414.562,384.486 415.474,382.821 416.222,382.316C416.968,381.812 418.553,381.429 420.913,381.408ZM488.991,272.502L489.002,272.502C516.781,223.907 559.484,258.513 575.443,270.099C561.84,284.32 526.092,325.87 489.954,282.947C488.479,280.949 487.26,279.001 487.158,277.921C487.055,276.841 487.598,274.974 488.991,272.502ZM436.185,147.981L436.195,147.981C435.283,147.365 434.177,145.751 433.153,143.116C413.148,90.939 467.498,80.877 486.755,76.265C489.091,95.662 498.493,149.353 441.89,149.101C439.391,148.919 437.086,148.596 436.185,147.981ZM358.842,132.621C357.684,132.187 356.046,130.733 354.202,128.14C318.156,76.719 374.494,51.317 394.171,41.174C402.037,61.641 426.979,117.522 365.357,132.318C362.591,132.792 359.999,133.054 358.842,132.621Z" style="fill:rgb(59,94,218);"/>
            </g>
        </g>
    </g>
</svg>
