<svg viewBox="0 0 201 200" xmlns="http://www.w3.org/2000/svg" fill-rule="evenodd" clip-rule="evenodd" stroke-linejoin="round" stroke-miterlimit="2"><path fill="none" d="M.893-.006h200v200h-200z"/><g fill-rule="nonzero"><path d="M196.71 52.625c-2.302-8.61-9.072-15.373-17.682-17.683-15.59-4.18-78.137-4.18-78.137-4.18s-62.548 0-78.138 4.18A25.066 25.066 0 005.07 52.625C.891 68.215.891 100.765.891 100.765s0 32.552 4.18 48.142a25.066 25.066 0 0017.682 17.683c15.59 4.179 78.138 4.179 78.138 4.179s62.547 0 78.137-4.18c8.61-2.31 15.38-9.072 17.683-17.682 4.179-15.59 4.179-48.141 4.179-48.141s-.014-32.551-4.18-48.141z" fill="red"/><path d="M80.87 130.762l51.963-29.996L80.87 70.77v59.992z" fill="#fff"/></g></svg>